;Layer: Drill PTH
;EasyEDA v6.2.35, 2019-08-21T20:42:41--4:00
;b93f31dc4dfb4fa4b1faa3162af4ed07,6e2bf04d41c14c7a8c50f1ceb3267db7,10
;Gerber Generator version 0.2
M48
METRIC,LZ,000.000
;Holesize 1 = 0.400 METRIC
T01C0.400
;Holesize 2 = 0.501 METRIC
T02C0.501
;Holesize 3 = 0.701 METRIC
T03C0.701
;Holesize 4 = 0.900 METRIC
T04C0.900
;Holesize 5 = 0.901 METRIC
T05C0.901
;Holesize 6 = 0.966 METRIC
T06C0.966
;Holesize 7 = 1.200 METRIC
T07C1.200
%
G05
G90
T01
X+051269Y+019742G85X+051269Y+018690
X+044112Y+019742G85X+044112Y+018690
T02
X+048991Y+019516
X+048341Y+018515
X+047690Y+019516
X+047040Y+018515
X+046390Y+019516
T03
X+036227Y+039462
X+032228Y+039462
T04
X+058104Y+044669
X+058104Y+052289
X+018099Y+011014
X+018099Y+018634
X+056199Y+064227
X+056199Y+071847
X+051246Y+079975
X+043626Y+079975
X+026100Y+034382
X+026100Y+042002
X+065089Y+033366
X+065089Y+040986
X+037784Y+023841
X+037784Y+031461
X+038673Y+064354
X+038673Y+071974
X+059755Y+024857
X+059755Y+032477
X+078043Y+012284
X+078043Y+019904
T05
X+051119Y+075530
X+051119Y+072990
X+051119Y+070450
X+051119Y+067910
X+051119Y+065370
X+051119Y+062830
X+051119Y+060290
X+051119Y+057750
X+051119Y+055210
X+051119Y+052670
X+051119Y+050130
X+051119Y+047590
X+051119Y+045050
X+051119Y+042510
X+043499Y+075530
X+043499Y+072990
X+043499Y+070450
X+043499Y+067910
X+043499Y+065370
X+043499Y+062830
X+043499Y+060290
X+043499Y+057750
X+043499Y+055210
X+043499Y+052670
X+043499Y+050130
X+043499Y+047590
X+043499Y+045050
X+043499Y+042510
T06
X+062803Y+067529
X+062803Y+064989
X+019623Y+038192
X+019623Y+035652
X+075757Y+038192
X+075757Y+035652
X+031688Y+067529
X+031688Y+064989
X+008066Y+009871
X+008066Y+007331
X+028640Y+022444
X+028640Y+019904
X+066486Y+022444
X+066486Y+019904
X+086806Y+009871
X+086806Y+007331
X+047436Y+086706
X+047436Y+084166
T07
X+050686Y+030227
X+044187Y+030227
X+044187Y+034727
X+050686Y+034727
M30
