G04 Layer: BottomSilkLayer*
G04 EasyEDA v6.2.35, 2019-08-21T20:42:41--4:00*
G04 b93f31dc4dfb4fa4b1faa3162af4ed07,6e2bf04d41c14c7a8c50f1ceb3267db7,10*
G04 Gerber Generator version 0.2*
G04 Scale: 100 percent, Rotated: No, Reflected: No *
G04 Dimensions in millimeters *
G04 leading zeros omitted , absolute positions ,3 integer and 3 decimal *
%FSLAX33Y33*%
%MOMM*%
G90*
G71D02*

%ADD10C,0.254000*%
%ADD21C,0.599999*%
%ADD22C,0.299999*%
%ADD23C,0.203200*%
%ADD24C,0.152400*%

%LPD*%

%LPD*%
G36*
G01X70653Y16140D02*
G01X70595Y16141D01*
G01X70542Y16139D01*
G01X70496Y16135D01*
G01X70458Y16129D01*
G01X70430Y16122D01*
G01X70397Y16104D01*
G01X70379Y16082D01*
G01X70376Y16054D01*
G01X70387Y16024D01*
G01X70412Y15989D01*
G01X70451Y15952D01*
G01X70504Y15913D01*
G01X70570Y15870D01*
G01X70626Y15835D01*
G01X70679Y15796D01*
G01X70729Y15754D01*
G01X70776Y15708D01*
G01X70819Y15660D01*
G01X70858Y15610D01*
G01X70894Y15556D01*
G01X70926Y15501D01*
G01X70954Y15443D01*
G01X70978Y15384D01*
G01X70998Y15322D01*
G01X71013Y15259D01*
G01X71050Y15080D01*
G01X70638Y14662D01*
G01X70582Y14606D01*
G01X70528Y14549D01*
G01X70475Y14492D01*
G01X70422Y14434D01*
G01X70370Y14376D01*
G01X70319Y14318D01*
G01X70270Y14261D01*
G01X70221Y14203D01*
G01X70173Y14144D01*
G01X70126Y14086D01*
G01X70081Y14029D01*
G01X70036Y13971D01*
G01X69993Y13914D01*
G01X69952Y13856D01*
G01X69910Y13799D01*
G01X69871Y13743D01*
G01X69833Y13686D01*
G01X69761Y13576D01*
G01X69727Y13521D01*
G01X69695Y13467D01*
G01X69664Y13414D01*
G01X69634Y13361D01*
G01X69606Y13309D01*
G01X69580Y13258D01*
G01X69555Y13207D01*
G01X69532Y13158D01*
G01X69511Y13109D01*
G01X69491Y13062D01*
G01X69473Y13015D01*
G01X69456Y12970D01*
G01X69442Y12926D01*
G01X69429Y12883D01*
G01X69419Y12841D01*
G01X69410Y12801D01*
G01X69403Y12762D01*
G01X69394Y12693D01*
G01X69388Y12624D01*
G01X69385Y12556D01*
G01X69385Y12489D01*
G01X69387Y12423D01*
G01X69393Y12357D01*
G01X69402Y12292D01*
G01X69414Y12227D01*
G01X69429Y12164D01*
G01X69447Y12102D01*
G01X69468Y12040D01*
G01X69492Y11980D01*
G01X69519Y11920D01*
G01X69549Y11861D01*
G01X69581Y11803D01*
G01X69617Y11746D01*
G01X69649Y11695D01*
G01X69656Y11666D01*
G01X69637Y11649D01*
G01X69587Y11635D01*
G01X69552Y11622D01*
G01X69511Y11599D01*
G01X69464Y11567D01*
G01X69414Y11527D01*
G01X69361Y11481D01*
G01X69306Y11429D01*
G01X69252Y11373D01*
G01X69197Y11314D01*
G01X69144Y11252D01*
G01X69094Y11189D01*
G01X69047Y11127D01*
G01X69006Y11065D01*
G01X68981Y11025D01*
G01X68931Y10943D01*
G01X68907Y10901D01*
G01X68882Y10859D01*
G01X68834Y10773D01*
G01X68811Y10728D01*
G01X68787Y10684D01*
G01X68763Y10638D01*
G01X68740Y10592D01*
G01X68717Y10545D01*
G01X68693Y10497D01*
G01X68647Y10399D01*
G01X68601Y10297D01*
G01X68577Y10244D01*
G01X68555Y10191D01*
G01X68531Y10136D01*
G01X68508Y10080D01*
G01X68484Y10023D01*
G01X68461Y9965D01*
G01X68438Y9906D01*
G01X68390Y9784D01*
G01X68366Y9720D01*
G01X68342Y9655D01*
G01X68318Y9589D01*
G01X68293Y9522D01*
G01X68269Y9453D01*
G01X68244Y9383D01*
G01X68219Y9311D01*
G01X68193Y9237D01*
G01X68167Y9162D01*
G01X68142Y9085D01*
G01X68111Y8993D01*
G01X68083Y8906D01*
G01X68057Y8824D01*
G01X68033Y8746D01*
G01X68010Y8673D01*
G01X67991Y8603D01*
G01X67972Y8537D01*
G01X67957Y8475D01*
G01X67942Y8417D01*
G01X67930Y8363D01*
G01X67920Y8311D01*
G01X67911Y8264D01*
G01X67905Y8219D01*
G01X67900Y8177D01*
G01X67897Y8139D01*
G01X67896Y8103D01*
G01X67897Y8070D01*
G01X67899Y8039D01*
G01X67903Y8010D01*
G01X67908Y7984D01*
G01X67927Y7930D01*
G01X67954Y7877D01*
G01X67988Y7829D01*
G01X68029Y7785D01*
G01X68074Y7746D01*
G01X68124Y7714D01*
G01X68176Y7691D01*
G01X68228Y7677D01*
G01X68275Y7671D01*
G01X68321Y7667D01*
G01X68367Y7666D01*
G01X68413Y7668D01*
G01X68461Y7673D01*
G01X68509Y7682D01*
G01X68560Y7694D01*
G01X68611Y7709D01*
G01X68666Y7729D01*
G01X68723Y7752D01*
G01X68783Y7778D01*
G01X68847Y7809D01*
G01X68914Y7844D01*
G01X68985Y7884D01*
G01X69062Y7927D01*
G01X69143Y7975D01*
G01X69254Y8043D01*
G01X69349Y8099D01*
G01X69429Y8146D01*
G01X69494Y8183D01*
G01X69547Y8212D01*
G01X69588Y8233D01*
G01X69620Y8246D01*
G01X69643Y8253D01*
G01X69658Y8253D01*
G01X69667Y8249D01*
G01X69672Y8239D01*
G01X69673Y8225D01*
G01X69686Y8185D01*
G01X69722Y8110D01*
G01X69775Y8011D01*
G01X69840Y7898D01*
G01X69906Y7788D01*
G01X69959Y7695D01*
G01X69995Y7631D01*
G01X70008Y7604D01*
G01X69997Y7602D01*
G01X69966Y7600D01*
G01X69917Y7598D01*
G01X69851Y7596D01*
G01X69773Y7595D01*
G01X69682Y7594D01*
G01X69582Y7593D01*
G01X68942Y7593D01*
G01X68838Y7474D01*
G01X68798Y7424D01*
G01X68765Y7377D01*
G01X68743Y7336D01*
G01X68734Y7309D01*
G01X68747Y7228D01*
G01X68783Y7150D01*
G01X68838Y7079D01*
G01X68909Y7023D01*
G01X68924Y7014D01*
G01X68956Y6998D01*
G01X68975Y6992D01*
G01X68995Y6986D01*
G01X69018Y6981D01*
G01X69046Y6976D01*
G01X69077Y6972D01*
G01X69114Y6969D01*
G01X69157Y6966D01*
G01X69207Y6964D01*
G01X69264Y6962D01*
G01X69329Y6960D01*
G01X69402Y6959D01*
G01X69486Y6957D01*
G01X69580Y6957D01*
G01X69685Y6956D01*
G01X71126Y6956D01*
G01X70595Y6444D01*
G01X70529Y6381D01*
G01X70465Y6319D01*
G01X70403Y6257D01*
G01X70341Y6198D01*
G01X70223Y6080D01*
G01X70166Y6022D01*
G01X70111Y5966D01*
G01X70058Y5912D01*
G01X70005Y5857D01*
G01X69955Y5805D01*
G01X69906Y5753D01*
G01X69859Y5703D01*
G01X69814Y5654D01*
G01X69770Y5606D01*
G01X69728Y5559D01*
G01X69687Y5515D01*
G01X69649Y5471D01*
G01X69613Y5428D01*
G01X69578Y5388D01*
G01X69545Y5348D01*
G01X69514Y5310D01*
G01X69485Y5274D01*
G01X69458Y5239D01*
G01X69432Y5206D01*
G01X69409Y5174D01*
G01X69388Y5144D01*
G01X69369Y5115D01*
G01X69352Y5089D01*
G01X69337Y5064D01*
G01X69324Y5041D01*
G01X69314Y5019D01*
G01X69278Y4935D01*
G01X69252Y4856D01*
G01X69234Y4781D01*
G01X69226Y4712D01*
G01X69226Y4649D01*
G01X69234Y4591D01*
G01X69252Y4540D01*
G01X69278Y4495D01*
G01X69312Y4457D01*
G01X69356Y4426D01*
G01X69407Y4402D01*
G01X69467Y4387D01*
G01X69510Y4381D01*
G01X69559Y4379D01*
G01X69613Y4381D01*
G01X69671Y4387D01*
G01X69732Y4396D01*
G01X69793Y4408D01*
G01X69855Y4422D01*
G01X69917Y4439D01*
G01X69975Y4458D01*
G01X70031Y4479D01*
G01X70083Y4502D01*
G01X70129Y4526D01*
G01X70152Y4540D01*
G01X70180Y4557D01*
G01X70212Y4578D01*
G01X70247Y4601D01*
G01X70285Y4627D01*
G01X70327Y4656D01*
G01X70372Y4687D01*
G01X70419Y4720D01*
G01X70469Y4755D01*
G01X70522Y4792D01*
G01X70575Y4832D01*
G01X70631Y4872D01*
G01X70689Y4913D01*
G01X70747Y4956D01*
G01X70807Y5000D01*
G01X70866Y5044D01*
G01X71049Y5179D01*
G01X71110Y5225D01*
G01X71170Y5271D01*
G01X71288Y5361D01*
G01X71344Y5405D01*
G01X71400Y5448D01*
G01X71454Y5490D01*
G01X71506Y5531D01*
G01X71556Y5571D01*
G01X71635Y5633D01*
G01X71709Y5692D01*
G01X71777Y5745D01*
G01X71838Y5791D01*
G01X71889Y5829D01*
G01X71928Y5858D01*
G01X71954Y5876D01*
G01X71966Y5883D01*
G01X71987Y5862D01*
G01X72030Y5806D01*
G01X72089Y5724D01*
G01X72158Y5623D01*
G01X72190Y5575D01*
G01X72224Y5526D01*
G01X72260Y5476D01*
G01X72296Y5423D01*
G01X72334Y5371D01*
G01X72373Y5317D01*
G01X72413Y5262D01*
G01X72454Y5206D01*
G01X72497Y5150D01*
G01X72539Y5093D01*
G01X72583Y5036D01*
G01X72671Y4921D01*
G01X72717Y4864D01*
G01X72807Y4750D01*
G01X72853Y4694D01*
G01X72898Y4638D01*
G01X72944Y4583D01*
G01X72989Y4529D01*
G01X73050Y4456D01*
G01X73106Y4395D01*
G01X73157Y4343D01*
G01X73206Y4299D01*
G01X73254Y4261D01*
G01X73303Y4227D01*
G01X73355Y4197D01*
G01X73411Y4168D01*
G01X73483Y4136D01*
G01X73551Y4111D01*
G01X73615Y4093D01*
G01X73675Y4081D01*
G01X73731Y4077D01*
G01X73782Y4079D01*
G01X73831Y4088D01*
G01X73875Y4104D01*
G01X73915Y4126D01*
G01X73953Y4156D01*
G01X73986Y4193D01*
G01X74016Y4237D01*
G01X74042Y4288D01*
G01X74065Y4346D01*
G01X74084Y4410D01*
G01X74100Y4483D01*
G01X74109Y4536D01*
G01X74114Y4586D01*
G01X74115Y4636D01*
G01X74112Y4690D01*
G01X74103Y4751D01*
G01X74089Y4822D01*
G01X74070Y4908D01*
G01X74045Y5010D01*
G01X74029Y5074D01*
G01X74012Y5137D01*
G01X73995Y5201D01*
G01X73957Y5330D01*
G01X73937Y5396D01*
G01X73917Y5461D01*
G01X73896Y5526D01*
G01X73875Y5592D01*
G01X73830Y5723D01*
G01X73807Y5788D01*
G01X73783Y5854D01*
G01X73734Y5984D01*
G01X73709Y6048D01*
G01X73657Y6176D01*
G01X73631Y6239D01*
G01X73577Y6363D01*
G01X73549Y6425D01*
G01X73522Y6485D01*
G01X73494Y6545D01*
G01X73298Y6956D01*
G01X74925Y6956D01*
G01X75024Y6957D01*
G01X75111Y6958D01*
G01X75189Y6960D01*
G01X75258Y6961D01*
G01X75317Y6963D01*
G01X75369Y6966D01*
G01X75414Y6968D01*
G01X75452Y6972D01*
G01X75485Y6976D01*
G01X75513Y6980D01*
G01X75537Y6985D01*
G01X75558Y6991D01*
G01X75576Y6998D01*
G01X75592Y7005D01*
G01X75608Y7013D01*
G01X75623Y7022D01*
G01X75674Y7058D01*
G01X75716Y7098D01*
G01X75748Y7139D01*
G01X75772Y7183D01*
G01X75785Y7228D01*
G01X75791Y7274D01*
G01X75786Y7320D01*
G01X75772Y7364D01*
G01X75749Y7408D01*
G01X75717Y7450D01*
G01X75675Y7489D01*
G01X75624Y7525D01*
G01X75601Y7540D01*
G01X75576Y7551D01*
G01X75549Y7562D01*
G01X75518Y7570D01*
G01X75482Y7577D01*
G01X75437Y7582D01*
G01X75385Y7586D01*
G01X75321Y7589D01*
G01X75245Y7591D01*
G01X75154Y7592D01*
G01X75048Y7592D01*
G01X74924Y7593D01*
G01X74333Y7593D01*
G01X74471Y7869D01*
G01X74526Y7978D01*
G01X74571Y8068D01*
G01X74604Y8131D01*
G01X74620Y8157D01*
G01X74630Y8155D01*
G01X74657Y8144D01*
G01X74699Y8126D01*
G01X74753Y8101D01*
G01X74818Y8070D01*
G01X74892Y8034D01*
G01X75059Y7950D01*
G01X75146Y7906D01*
G01X75225Y7867D01*
G01X75297Y7833D01*
G01X75363Y7802D01*
G01X75424Y7774D01*
G01X75480Y7751D01*
G01X75532Y7731D01*
G01X75581Y7713D01*
G01X75627Y7699D01*
G01X75672Y7687D01*
G01X75715Y7678D01*
G01X75757Y7671D01*
G01X75800Y7666D01*
G01X75844Y7663D01*
G01X75889Y7661D01*
G01X75936Y7660D01*
G01X76018Y7665D01*
G01X76089Y7678D01*
G01X76148Y7702D01*
G01X76195Y7735D01*
G01X76232Y7778D01*
G01X76257Y7832D01*
G01X76273Y7896D01*
G01X76278Y7970D01*
G01X76277Y7994D01*
G01X76274Y8021D01*
G01X76270Y8052D01*
G01X76264Y8087D01*
G01X76257Y8126D01*
G01X76248Y8169D01*
G01X76237Y8214D01*
G01X76225Y8262D01*
G01X76212Y8313D01*
G01X76198Y8367D01*
G01X76183Y8424D01*
G01X76166Y8483D01*
G01X76148Y8543D01*
G01X76129Y8606D01*
G01X76110Y8671D01*
G01X76089Y8737D01*
G01X76068Y8805D01*
G01X76046Y8874D01*
G01X76023Y8943D01*
G01X75999Y9014D01*
G01X75975Y9086D01*
G01X75951Y9157D01*
G01X75926Y9229D01*
G01X75900Y9302D01*
G01X75874Y9374D01*
G01X75823Y9517D01*
G01X75769Y9659D01*
G01X75743Y9728D01*
G01X75716Y9796D01*
G01X75690Y9862D01*
G01X75664Y9927D01*
G01X75638Y9991D01*
G01X75612Y10052D01*
G01X75587Y10112D01*
G01X75562Y10169D01*
G01X75538Y10224D01*
G01X75514Y10276D01*
G01X75490Y10326D01*
G01X75451Y10406D01*
G01X75410Y10485D01*
G01X75369Y10561D01*
G01X75328Y10636D01*
G01X75287Y10710D01*
G01X75244Y10780D01*
G01X75202Y10849D01*
G01X75160Y10915D01*
G01X75117Y10978D01*
G01X75075Y11039D01*
G01X75033Y11097D01*
G01X74991Y11152D01*
G01X74949Y11204D01*
G01X74909Y11253D01*
G01X74868Y11298D01*
G01X74828Y11340D01*
G01X74789Y11379D01*
G01X74752Y11413D01*
G01X74715Y11444D01*
G01X74678Y11471D01*
G01X74643Y11494D01*
G01X74610Y11512D01*
G01X74578Y11526D01*
G01X74547Y11536D01*
G01X74516Y11545D01*
G01X74491Y11554D01*
G01X74474Y11563D01*
G01X74467Y11570D01*
G01X74475Y11586D01*
G01X74497Y11620D01*
G01X74529Y11667D01*
G01X74568Y11723D01*
G01X74594Y11760D01*
G01X74618Y11799D01*
G01X74640Y11840D01*
G01X74660Y11883D01*
G01X74678Y11927D01*
G01X74696Y11973D01*
G01X74711Y12020D01*
G01X74724Y12070D01*
G01X74736Y12120D01*
G01X74746Y12172D01*
G01X74754Y12226D01*
G01X74760Y12281D01*
G01X74765Y12337D01*
G01X74768Y12395D01*
G01X74769Y12454D01*
G01X74768Y12514D01*
G01X74766Y12575D01*
G01X74762Y12638D01*
G01X74756Y12702D01*
G01X74748Y12767D01*
G01X74739Y12833D01*
G01X74727Y12900D01*
G01X74714Y12968D01*
G01X74699Y13037D01*
G01X74629Y13343D01*
G01X74188Y13779D01*
G01X74101Y13864D01*
G01X74013Y13948D01*
G01X73969Y13989D01*
G01X73924Y14030D01*
G01X73833Y14111D01*
G01X73695Y14231D01*
G01X73648Y14271D01*
G01X73602Y14310D01*
G01X73554Y14348D01*
G01X73507Y14387D01*
G01X73411Y14463D01*
G01X73362Y14501D01*
G01X73314Y14538D01*
G01X73265Y14575D01*
G01X73166Y14649D01*
G01X73066Y14721D01*
G01X72966Y14791D01*
G01X72915Y14826D01*
G01X72812Y14896D01*
G01X72761Y14929D01*
G01X72709Y14963D01*
G01X72552Y15062D01*
G01X72393Y15158D01*
G01X72231Y15251D01*
G01X72178Y15282D01*
G01X72123Y15312D01*
G01X72014Y15370D01*
G01X71932Y15415D01*
G01X71864Y15454D01*
G01X71806Y15491D01*
G01X71757Y15527D01*
G01X71716Y15563D01*
G01X71679Y15601D01*
G01X71645Y15643D01*
G01X71611Y15690D01*
G01X71577Y15739D01*
G01X71539Y15785D01*
G01X71499Y15829D01*
G01X71457Y15870D01*
G01X71413Y15909D01*
G01X71367Y15945D01*
G01X71319Y15978D01*
G01X71269Y16008D01*
G01X71219Y16034D01*
G01X71166Y16058D01*
G01X71113Y16078D01*
G01X71058Y16094D01*
G01X71012Y16105D01*
G01X70959Y16115D01*
G01X70901Y16123D01*
G01X70840Y16129D01*
G01X70777Y16135D01*
G01X70714Y16139D01*
G01X70653Y16140D01*
G37*

%LPC*%
G36*
G01X73094Y6956D02*
G01X72251Y6956D01*
G01X72094Y6955D01*
G01X71957Y6955D01*
G01X71838Y6954D01*
G01X71738Y6952D01*
G01X71654Y6950D01*
G01X71585Y6947D01*
G01X71531Y6944D01*
G01X71490Y6940D01*
G01X71462Y6935D01*
G01X71445Y6929D01*
G01X71438Y6921D01*
G01X71441Y6914D01*
G01X71482Y6860D01*
G01X71524Y6805D01*
G01X71650Y6637D01*
G01X71691Y6581D01*
G01X71774Y6469D01*
G01X71814Y6414D01*
G01X71892Y6306D01*
G01X71929Y6254D01*
G01X71965Y6203D01*
G01X72000Y6153D01*
G01X72033Y6105D01*
G01X72065Y6058D01*
G01X72095Y6014D01*
G01X72123Y5972D01*
G01X72149Y5932D01*
G01X72173Y5895D01*
G01X72203Y5849D01*
G01X72269Y5750D01*
G01X72305Y5699D01*
G01X72341Y5645D01*
G01X72379Y5590D01*
G01X72419Y5535D01*
G01X72459Y5479D01*
G01X72500Y5422D01*
G01X72585Y5307D01*
G01X72627Y5250D01*
G01X72713Y5136D01*
G01X72755Y5080D01*
G01X72798Y5025D01*
G01X72840Y4971D01*
G01X72881Y4919D01*
G01X72921Y4868D01*
G01X72960Y4819D01*
G01X72999Y4772D01*
G01X73035Y4727D01*
G01X73071Y4685D01*
G01X73104Y4646D01*
G01X73136Y4609D01*
G01X73166Y4575D01*
G01X73194Y4545D01*
G01X73220Y4518D01*
G01X73273Y4465D01*
G01X73328Y4418D01*
G01X73382Y4376D01*
G01X73434Y4339D01*
G01X73487Y4309D01*
G01X73537Y4284D01*
G01X73586Y4265D01*
G01X73633Y4251D01*
G01X73677Y4244D01*
G01X73719Y4242D01*
G01X73757Y4247D01*
G01X73792Y4258D01*
G01X73824Y4275D01*
G01X73850Y4299D01*
G01X73873Y4329D01*
G01X73891Y4365D01*
G01X73908Y4413D01*
G01X73922Y4459D01*
G01X73932Y4502D01*
G01X73939Y4544D01*
G01X73942Y4589D01*
G01X73941Y4636D01*
G01X73936Y4689D01*
G01X73928Y4748D01*
G01X73914Y4816D01*
G01X73897Y4893D01*
G01X73876Y4982D01*
G01X73849Y5085D01*
G01X73831Y5158D01*
G01X73791Y5302D01*
G01X73769Y5375D01*
G01X73748Y5447D01*
G01X73725Y5518D01*
G01X73703Y5589D01*
G01X73680Y5660D01*
G01X73656Y5730D01*
G01X73633Y5799D01*
G01X73608Y5867D01*
G01X73584Y5935D01*
G01X73558Y6001D01*
G01X73533Y6067D01*
G01X73508Y6132D01*
G01X73456Y6258D01*
G01X73429Y6319D01*
G01X73402Y6379D01*
G01X73376Y6437D01*
G01X73349Y6494D01*
G01X73322Y6550D01*
G01X73295Y6604D01*
G01X73268Y6656D01*
G01X73241Y6707D01*
G01X73214Y6755D01*
G01X73188Y6802D01*
G01X73161Y6847D01*
G01X73094Y6956D01*
G37*
G36*
G01X71269Y6814D02*
G01X71255Y6822D01*
G01X71246Y6818D01*
G01X71230Y6806D01*
G01X71206Y6786D01*
G01X71176Y6760D01*
G01X71139Y6727D01*
G01X71096Y6688D01*
G01X71047Y6643D01*
G01X70994Y6593D01*
G01X70936Y6537D01*
G01X70873Y6477D01*
G01X70807Y6413D01*
G01X70737Y6345D01*
G01X70664Y6273D01*
G01X70588Y6199D01*
G01X70367Y5978D01*
G01X70304Y5914D01*
G01X70180Y5788D01*
G01X70120Y5726D01*
G01X70062Y5666D01*
G01X70005Y5607D01*
G01X69951Y5550D01*
G01X69899Y5495D01*
G01X69849Y5443D01*
G01X69803Y5393D01*
G01X69759Y5346D01*
G01X69719Y5301D01*
G01X69682Y5260D01*
G01X69648Y5223D01*
G01X69619Y5189D01*
G01X69593Y5159D01*
G01X69573Y5134D01*
G01X69556Y5113D01*
G01X69545Y5097D01*
G01X69497Y5018D01*
G01X69458Y4944D01*
G01X69427Y4873D01*
G01X69404Y4807D01*
G01X69391Y4747D01*
G01X69387Y4692D01*
G01X69392Y4645D01*
G01X69407Y4604D01*
G01X69433Y4567D01*
G01X69473Y4548D01*
G01X69541Y4543D01*
G01X69653Y4550D01*
G01X69742Y4561D01*
G01X69833Y4579D01*
G01X69915Y4602D01*
G01X69976Y4626D01*
G01X70005Y4642D01*
G01X70040Y4662D01*
G01X70080Y4687D01*
G01X70124Y4716D01*
G01X70173Y4748D01*
G01X70225Y4783D01*
G01X70281Y4822D01*
G01X70340Y4864D01*
G01X70403Y4907D01*
G01X70467Y4953D01*
G01X70534Y5002D01*
G01X70603Y5051D01*
G01X70673Y5103D01*
G01X70745Y5156D01*
G01X70816Y5209D01*
G01X70888Y5263D01*
G01X70961Y5318D01*
G01X71033Y5372D01*
G01X71104Y5426D01*
G01X71174Y5480D01*
G01X71242Y5534D01*
G01X71309Y5585D01*
G01X71374Y5636D01*
G01X71436Y5685D01*
G01X71495Y5733D01*
G01X71551Y5778D01*
G01X71604Y5821D01*
G01X71652Y5861D01*
G01X71696Y5898D01*
G01X71735Y5932D01*
G01X71769Y5963D01*
G01X71798Y5990D01*
G01X71822Y6013D01*
G01X71838Y6031D01*
G01X71848Y6045D01*
G01X71852Y6054D01*
G01X71846Y6072D01*
G01X71828Y6104D01*
G01X71801Y6146D01*
G01X71765Y6199D01*
G01X71723Y6257D01*
G01X71675Y6322D01*
G01X71624Y6391D01*
G01X71571Y6460D01*
G01X71517Y6528D01*
G01X71464Y6594D01*
G01X71414Y6655D01*
G01X71367Y6710D01*
G01X71327Y6756D01*
G01X71293Y6791D01*
G01X71269Y6814D01*
G37*
G36*
G01X75047Y7390D02*
G01X74775Y7390D01*
G01X74048Y7389D01*
G01X73900Y7157D01*
G01X74870Y7157D01*
G01X75014Y7158D01*
G01X75136Y7159D01*
G01X75237Y7160D01*
G01X75318Y7163D01*
G01X75383Y7167D01*
G01X75434Y7171D01*
G01X75473Y7177D01*
G01X75501Y7186D01*
G01X75523Y7195D01*
G01X75540Y7206D01*
G01X75553Y7220D01*
G01X75583Y7256D01*
G01X75593Y7282D01*
G01X75584Y7306D01*
G01X75556Y7337D01*
G01X75543Y7348D01*
G01X75526Y7358D01*
G01X75502Y7365D01*
G01X75472Y7372D01*
G01X75433Y7378D01*
G01X75383Y7382D01*
G01X75321Y7385D01*
G01X75245Y7387D01*
G01X75155Y7389D01*
G01X75047Y7390D01*
G37*
G36*
G01X72640Y7389D02*
G01X71792Y7392D01*
G01X71653Y7157D01*
G01X72788Y7157D01*
G01X72640Y7389D01*
G37*
G36*
G01X70401Y7273D02*
G01X70326Y7390D01*
G01X69660Y7382D01*
G01X69520Y7381D01*
G01X69401Y7379D01*
G01X69300Y7377D01*
G01X69217Y7374D01*
G01X69149Y7371D01*
G01X69094Y7366D01*
G01X69052Y7361D01*
G01X69019Y7355D01*
G01X68995Y7347D01*
G01X68978Y7338D01*
G01X68965Y7327D01*
G01X68956Y7314D01*
G01X68940Y7282D01*
G01X68939Y7256D01*
G01X68953Y7232D01*
G01X68983Y7205D01*
G01X68999Y7196D01*
G01X69020Y7188D01*
G01X69047Y7182D01*
G01X69082Y7175D01*
G01X69126Y7171D01*
G01X69179Y7167D01*
G01X69243Y7163D01*
G01X69319Y7161D01*
G01X69407Y7159D01*
G01X69510Y7158D01*
G01X69628Y7157D01*
G01X70474Y7157D01*
G01X70401Y7273D01*
G37*
G36*
G01X73147Y7279D02*
G01X73143Y7281D01*
G01X73139Y7274D01*
G01X73128Y7259D01*
G01X73113Y7239D01*
G01X73096Y7216D01*
G01X73075Y7184D01*
G01X73073Y7167D01*
G01X73094Y7159D01*
G01X73139Y7157D01*
G01X73185Y7159D01*
G01X73206Y7168D01*
G01X73206Y7188D01*
G01X73187Y7223D01*
G01X73170Y7248D01*
G01X73157Y7267D01*
G01X73147Y7279D01*
G37*
G36*
G01X71305Y7254D02*
G01X71299Y7258D01*
G01X71292Y7254D01*
G01X71280Y7242D01*
G01X71266Y7227D01*
G01X71248Y7207D01*
G01X71231Y7182D01*
G01X71231Y7166D01*
G01X71253Y7159D01*
G01X71299Y7157D01*
G01X71344Y7159D01*
G01X71367Y7166D01*
G01X71367Y7182D01*
G01X71349Y7207D01*
G01X71332Y7227D01*
G01X71305Y7254D01*
G37*
G36*
G01X70859Y7254D02*
G01X70846Y7258D01*
G01X70833Y7254D01*
G01X70816Y7242D01*
G01X70797Y7227D01*
G01X70779Y7207D01*
G01X70762Y7181D01*
G01X70764Y7166D01*
G01X70792Y7159D01*
G01X70846Y7157D01*
G01X70901Y7159D01*
G01X70928Y7166D01*
G01X70931Y7181D01*
G01X70913Y7207D01*
G01X70895Y7227D01*
G01X70877Y7242D01*
G01X70859Y7254D01*
G37*
G36*
G01X73575Y7221D02*
G01X73562Y7224D01*
G01X73549Y7221D01*
G01X73535Y7214D01*
G01X73522Y7203D01*
G01X73512Y7191D01*
G01X73510Y7177D01*
G01X73518Y7167D01*
G01X73536Y7160D01*
G01X73562Y7157D01*
G01X73588Y7160D01*
G01X73606Y7167D01*
G01X73615Y7177D01*
G01X73612Y7191D01*
G01X73602Y7203D01*
G01X73589Y7214D01*
G01X73575Y7221D01*
G37*
G36*
G01X72942Y7747D02*
G01X72919Y7754D01*
G01X72896Y7741D01*
G01X72874Y7706D01*
G01X72854Y7649D01*
G01X72848Y7557D01*
G01X72861Y7450D01*
G01X72889Y7361D01*
G01X72923Y7325D01*
G01X72951Y7341D01*
G01X72973Y7385D01*
G01X72987Y7454D01*
G01X72992Y7543D01*
G01X72988Y7618D01*
G01X72978Y7678D01*
G01X72961Y7722D01*
G01X72942Y7747D01*
G37*
G36*
G01X71543Y7738D02*
G01X71508Y7752D01*
G01X71491Y7737D01*
G01X71476Y7705D01*
G01X71463Y7661D01*
G01X71456Y7610D01*
G01X71454Y7504D01*
G01X71464Y7413D01*
G01X71484Y7349D01*
G01X71512Y7325D01*
G01X71542Y7349D01*
G01X71577Y7408D01*
G01X71606Y7480D01*
G01X71617Y7542D01*
G01X71606Y7615D01*
G01X71578Y7686D01*
G01X71543Y7738D01*
G37*
G36*
G01X73377Y7759D02*
G01X73355Y7759D01*
G01X73331Y7740D01*
G01X73308Y7701D01*
G01X73288Y7641D01*
G01X73280Y7594D01*
G01X73279Y7540D01*
G01X73285Y7484D01*
G01X73297Y7433D01*
G01X73321Y7375D01*
G01X73343Y7339D01*
G01X73366Y7327D01*
G01X73386Y7336D01*
G01X73403Y7366D01*
G01X73416Y7417D01*
G01X73425Y7486D01*
G01X73428Y7573D01*
G01X73424Y7645D01*
G01X73413Y7701D01*
G01X73397Y7739D01*
G01X73377Y7759D01*
G37*
G36*
G01X70636Y7748D02*
G01X70617Y7756D01*
G01X70595Y7744D01*
G01X70572Y7713D01*
G01X70550Y7662D01*
G01X70537Y7611D01*
G01X70533Y7557D01*
G01X70536Y7502D01*
G01X70548Y7444D01*
G01X70569Y7383D01*
G01X70591Y7346D01*
G01X70613Y7329D01*
G01X70633Y7334D01*
G01X70652Y7359D01*
G01X70666Y7402D01*
G01X70675Y7464D01*
G01X70679Y7543D01*
G01X70675Y7618D01*
G01X70667Y7678D01*
G01X70654Y7722D01*
G01X70636Y7748D01*
G37*
G36*
G01X73798Y7741D02*
G01X73767Y7758D01*
G01X73740Y7747D01*
G01X73716Y7707D01*
G01X73700Y7632D01*
G01X73698Y7543D01*
G01X73709Y7455D01*
G01X73734Y7383D01*
G01X73756Y7345D01*
G01X73773Y7331D01*
G01X73792Y7341D01*
G01X73818Y7375D01*
G01X73849Y7444D01*
G01X73862Y7529D01*
G01X73856Y7617D01*
G01X73829Y7696D01*
G01X73798Y7741D01*
G37*
G36*
G01X71106Y7746D02*
G01X71079Y7761D01*
G01X71065Y7755D01*
G01X71048Y7741D01*
G01X71031Y7721D01*
G01X71015Y7696D01*
G01X70990Y7632D01*
G01X70982Y7564D01*
G01X70990Y7489D01*
G01X71014Y7407D01*
G01X71034Y7363D01*
G01X71051Y7342D01*
G01X71072Y7341D01*
G01X71098Y7358D01*
G01X71123Y7394D01*
G01X71139Y7448D01*
G01X71147Y7514D01*
G01X71147Y7583D01*
G01X71140Y7650D01*
G01X71127Y7707D01*
G01X71106Y7746D01*
G37*
G36*
G01X70857Y15965D02*
G01X70828Y15966D01*
G01X70814Y15959D01*
G01X70814Y15944D01*
G01X70828Y15918D01*
G01X70856Y15883D01*
G01X70896Y15836D01*
G01X70935Y15792D01*
G01X70971Y15744D01*
G01X71005Y15694D01*
G01X71037Y15640D01*
G01X71067Y15586D01*
G01X71095Y15529D01*
G01X71119Y15471D01*
G01X71142Y15413D01*
G01X71161Y15353D01*
G01X71177Y15294D01*
G01X71190Y15234D01*
G01X71199Y15175D01*
G01X71223Y14996D01*
G01X70927Y14722D01*
G01X70883Y14681D01*
G01X70751Y14552D01*
G01X70665Y14464D01*
G01X70581Y14374D01*
G01X70539Y14328D01*
G01X70498Y14282D01*
G01X70458Y14236D01*
G01X70417Y14188D01*
G01X70378Y14141D01*
G01X70300Y14046D01*
G01X70261Y13997D01*
G01X70186Y13899D01*
G01X70150Y13850D01*
G01X70042Y13700D01*
G01X70008Y13649D01*
G01X69941Y13548D01*
G01X69908Y13496D01*
G01X69876Y13445D01*
G01X69844Y13393D01*
G01X69813Y13342D01*
G01X69783Y13289D01*
G01X69753Y13237D01*
G01X69724Y13185D01*
G01X69694Y13126D01*
G01X69667Y13066D01*
G01X69642Y13005D01*
G01X69620Y12943D01*
G01X69602Y12881D01*
G01X69587Y12818D01*
G01X69574Y12755D01*
G01X69565Y12691D01*
G01X69558Y12627D01*
G01X69555Y12563D01*
G01X69555Y12500D01*
G01X69558Y12436D01*
G01X69564Y12373D01*
G01X69573Y12310D01*
G01X69585Y12248D01*
G01X69600Y12186D01*
G01X69618Y12125D01*
G01X69639Y12065D01*
G01X69664Y12007D01*
G01X69691Y11949D01*
G01X69714Y11910D01*
G01X69747Y11864D01*
G01X69788Y11812D01*
G01X69835Y11758D01*
G01X69886Y11702D01*
G01X69939Y11647D01*
G01X69992Y11595D01*
G01X70042Y11548D01*
G01X70089Y11508D01*
G01X70130Y11477D01*
G01X70163Y11456D01*
G01X70186Y11449D01*
G01X70201Y11454D01*
G01X70224Y11467D01*
G01X70251Y11487D01*
G01X70280Y11511D01*
G01X70317Y11548D01*
G01X70327Y11569D01*
G01X70307Y11583D01*
G01X70255Y11598D01*
G01X70206Y11613D01*
G01X70157Y11634D01*
G01X70112Y11660D01*
G01X70067Y11691D01*
G01X70026Y11727D01*
G01X69986Y11767D01*
G01X69950Y11810D01*
G01X69915Y11857D01*
G01X69884Y11907D01*
G01X69856Y11961D01*
G01X69831Y12016D01*
G01X69809Y12075D01*
G01X69791Y12134D01*
G01X69776Y12195D01*
G01X69766Y12258D01*
G01X69759Y12322D01*
G01X69756Y12386D01*
G01X69758Y12451D01*
G01X69764Y12515D01*
G01X69775Y12579D01*
G01X69800Y12694D01*
G01X69826Y12790D01*
G01X69852Y12868D01*
G01X69880Y12930D01*
G01X69913Y12979D01*
G01X69951Y13017D01*
G01X69994Y13048D01*
G01X70045Y13072D01*
G01X70088Y13087D01*
G01X70133Y13100D01*
G01X70182Y13109D01*
G01X70232Y13116D01*
G01X70284Y13121D01*
G01X70337Y13123D01*
G01X70391Y13122D01*
G01X70446Y13118D01*
G01X70501Y13111D01*
G01X70556Y13102D01*
G01X70610Y13090D01*
G01X70664Y13075D01*
G01X70759Y13049D01*
G01X70817Y13044D01*
G01X70861Y13062D01*
G01X70913Y13107D01*
G01X70950Y13140D01*
G01X70991Y13170D01*
G01X71036Y13199D01*
G01X71084Y13225D01*
G01X71137Y13248D01*
G01X71193Y13269D01*
G01X71254Y13289D01*
G01X71318Y13306D01*
G01X71387Y13321D01*
G01X71460Y13333D01*
G01X71538Y13344D01*
G01X71620Y13353D01*
G01X71706Y13359D01*
G01X71789Y13364D01*
G01X71871Y13367D01*
G01X71951Y13367D01*
G01X72029Y13366D01*
G01X72105Y13363D01*
G01X72179Y13358D01*
G01X72250Y13350D01*
G01X72319Y13342D01*
G01X72385Y13330D01*
G01X72449Y13318D01*
G01X72510Y13303D01*
G01X72567Y13287D01*
G01X72622Y13269D01*
G01X72673Y13249D01*
G01X72721Y13227D01*
G01X72765Y13204D01*
G01X72806Y13179D01*
G01X72843Y13152D01*
G01X72876Y13124D01*
G01X72917Y13089D01*
G01X72952Y13079D01*
G01X72998Y13099D01*
G01X73073Y13151D01*
G01X73113Y13177D01*
G01X73148Y13198D01*
G01X73184Y13215D01*
G01X73222Y13226D01*
G01X73263Y13234D01*
G01X73312Y13239D01*
G01X73370Y13241D01*
G01X73441Y13242D01*
G01X73510Y13241D01*
G01X73570Y13238D01*
G01X73623Y13232D01*
G01X73672Y13223D01*
G01X73720Y13210D01*
G01X73769Y13193D01*
G01X73822Y13170D01*
G01X73880Y13142D01*
G01X73939Y13111D01*
G01X73988Y13083D01*
G01X74029Y13055D01*
G01X74063Y13026D01*
G01X74094Y12993D01*
G01X74123Y12955D01*
G01X74151Y12910D01*
G01X74181Y12857D01*
G01X74210Y12802D01*
G01X74232Y12753D01*
G01X74250Y12706D01*
G01X74262Y12660D01*
G01X74272Y12611D01*
G01X74277Y12557D01*
G01X74281Y12494D01*
G01X74282Y12421D01*
G01X74281Y12350D01*
G01X74279Y12288D01*
G01X74274Y12235D01*
G01X74266Y12186D01*
G01X74255Y12141D01*
G01X74241Y12097D01*
G01X74222Y12052D01*
G01X74199Y12003D01*
G01X74174Y11957D01*
G01X74147Y11917D01*
G01X74118Y11882D01*
G01X74085Y11851D01*
G01X74049Y11825D01*
G01X74006Y11802D01*
G01X73958Y11783D01*
G01X73903Y11768D01*
G01X73840Y11755D01*
G01X73768Y11743D01*
G01X73685Y11734D01*
G01X73592Y11727D01*
G01X73517Y11723D01*
G01X73445Y11722D01*
G01X73377Y11725D01*
G01X73312Y11732D01*
G01X73250Y11743D01*
G01X73190Y11759D01*
G01X73131Y11778D01*
G01X73073Y11803D01*
G01X73014Y11832D01*
G01X72956Y11865D01*
G01X72897Y11904D01*
G01X72836Y11949D01*
G01X72664Y12079D01*
G01X72496Y11870D01*
G01X72452Y11818D01*
G01X72405Y11766D01*
G01X72355Y11716D01*
G01X72304Y11668D01*
G01X72252Y11622D01*
G01X72200Y11581D01*
G01X72150Y11543D01*
G01X72103Y11511D01*
G01X72058Y11485D01*
G01X72018Y11465D01*
G01X71984Y11453D01*
G01X71955Y11449D01*
G01X71925Y11454D01*
G01X71885Y11471D01*
G01X71835Y11497D01*
G01X71776Y11534D01*
G01X71709Y11579D01*
G01X71636Y11632D01*
G01X71557Y11693D01*
G01X71475Y11759D01*
G01X71315Y11892D01*
G01X71136Y11757D01*
G01X71087Y11721D01*
G01X71039Y11689D01*
G01X70991Y11661D01*
G01X70944Y11636D01*
G01X70897Y11615D01*
G01X70850Y11597D01*
G01X70801Y11582D01*
G01X70752Y11570D01*
G01X70700Y11560D01*
G01X70648Y11554D01*
G01X70592Y11550D01*
G01X70534Y11549D01*
G01X70448Y11547D01*
G01X70402Y11539D01*
G01X70387Y11518D01*
G01X70394Y11483D01*
G01X70396Y11445D01*
G01X70379Y11399D01*
G01X70342Y11344D01*
G01X70283Y11274D01*
G01X70250Y11237D01*
G01X70218Y11198D01*
G01X70186Y11157D01*
G01X70155Y11113D01*
G01X70123Y11068D01*
G01X70092Y11020D01*
G01X70061Y10971D01*
G01X70031Y10920D01*
G01X70001Y10868D01*
G01X69972Y10814D01*
G01X69943Y10758D01*
G01X69915Y10702D01*
G01X69888Y10645D01*
G01X69836Y10527D01*
G01X69811Y10467D01*
G01X69787Y10406D01*
G01X69743Y10284D01*
G01X69722Y10222D01*
G01X69703Y10161D01*
G01X69684Y10099D01*
G01X69652Y9977D01*
G01X69638Y9917D01*
G01X69624Y9856D01*
G01X69613Y9797D01*
G01X69603Y9738D01*
G01X69595Y9682D01*
G01X69589Y9623D01*
G01X69584Y9563D01*
G01X69581Y9500D01*
G01X69580Y9436D01*
G01X69580Y9370D01*
G01X69581Y9303D01*
G01X69584Y9237D01*
G01X69588Y9170D01*
G01X69593Y9104D01*
G01X69601Y9038D01*
G01X69609Y8973D01*
G01X69619Y8909D01*
G01X69630Y8846D01*
G01X69642Y8786D01*
G01X69656Y8728D01*
G01X69674Y8666D01*
G01X69695Y8600D01*
G01X69720Y8531D01*
G01X69749Y8459D01*
G01X69780Y8384D01*
G01X69814Y8309D01*
G01X69850Y8233D01*
G01X69888Y8158D01*
G01X69926Y8084D01*
G01X69965Y8013D01*
G01X70004Y7944D01*
G01X70043Y7879D01*
G01X70081Y7819D01*
G01X70118Y7764D01*
G01X70153Y7715D01*
G01X70186Y7673D01*
G01X70217Y7639D01*
G01X70244Y7614D01*
G01X70268Y7598D01*
G01X70288Y7593D01*
G01X70309Y7603D01*
G01X70332Y7632D01*
G01X70354Y7675D01*
G01X70373Y7727D01*
G01X70393Y7781D01*
G01X70416Y7828D01*
G01X70444Y7867D01*
G01X70475Y7899D01*
G01X70509Y7923D01*
G01X70544Y7939D01*
G01X70582Y7947D01*
G01X70621Y7946D01*
G01X70660Y7936D01*
G01X70699Y7919D01*
G01X70738Y7892D01*
G01X70777Y7856D01*
G01X70814Y7819D01*
G01X70842Y7809D01*
G01X70876Y7828D01*
G01X70928Y7879D01*
G01X70965Y7910D01*
G01X71003Y7932D01*
G01X71043Y7946D01*
G01X71084Y7950D01*
G01X71126Y7945D01*
G01X71167Y7932D01*
G01X71208Y7909D01*
G01X71248Y7878D01*
G01X71277Y7857D01*
G01X71304Y7853D01*
G01X71336Y7866D01*
G01X71378Y7897D01*
G01X71434Y7934D01*
G01X71491Y7953D01*
G01X71546Y7954D01*
G01X71598Y7939D01*
G01X71647Y7908D01*
G01X71690Y7862D01*
G01X71727Y7801D01*
G01X71756Y7726D01*
G01X71796Y7593D01*
G01X72646Y7593D01*
G01X72687Y7727D01*
G01X72706Y7781D01*
G01X72730Y7828D01*
G01X72758Y7868D01*
G01X72789Y7899D01*
G01X72822Y7923D01*
G01X72858Y7939D01*
G01X72895Y7947D01*
G01X72935Y7946D01*
G01X72974Y7936D01*
G01X73013Y7918D01*
G01X73052Y7891D01*
G01X73091Y7855D01*
G01X73128Y7818D01*
G01X73150Y7804D01*
G01X73168Y7817D01*
G01X73190Y7854D01*
G01X73214Y7889D01*
G01X73246Y7916D01*
G01X73283Y7935D01*
G01X73324Y7945D01*
G01X73368Y7946D01*
G01X73413Y7938D01*
G01X73458Y7922D01*
G01X73501Y7896D01*
G01X73538Y7871D01*
G01X73568Y7855D01*
G01X73588Y7850D01*
G01X73595Y7856D01*
G01X73626Y7899D01*
G01X73700Y7931D01*
G01X73787Y7944D01*
G01X73861Y7930D01*
G01X73919Y7880D01*
G01X73974Y7803D01*
G01X74016Y7718D01*
G01X74031Y7642D01*
G01X74037Y7604D01*
G01X74053Y7588D01*
G01X74078Y7592D01*
G01X74111Y7616D01*
G01X74150Y7658D01*
G01X74193Y7716D01*
G01X74241Y7790D01*
G01X74290Y7878D01*
G01X74319Y7934D01*
G01X74348Y7991D01*
G01X74375Y8048D01*
G01X74401Y8105D01*
G01X74427Y8161D01*
G01X74451Y8218D01*
G01X74474Y8274D01*
G01X74496Y8331D01*
G01X74517Y8387D01*
G01X74537Y8442D01*
G01X74556Y8497D01*
G01X74573Y8552D01*
G01X74590Y8605D01*
G01X74604Y8659D01*
G01X74618Y8711D01*
G01X74631Y8763D01*
G01X74642Y8814D01*
G01X74652Y8864D01*
G01X74660Y8913D01*
G01X74668Y8961D01*
G01X74674Y9012D01*
G01X74682Y9116D01*
G01X74685Y9170D01*
G01X74686Y9224D01*
G01X74685Y9280D01*
G01X74683Y9335D01*
G01X74680Y9391D01*
G01X74676Y9448D01*
G01X74670Y9506D01*
G01X74663Y9564D01*
G01X74655Y9622D01*
G01X74646Y9681D01*
G01X74635Y9741D01*
G01X74623Y9800D01*
G01X74610Y9861D01*
G01X74596Y9921D01*
G01X74564Y10043D01*
G01X74545Y10104D01*
G01X74527Y10166D01*
G01X74506Y10227D01*
G01X74462Y10351D01*
G01X74438Y10413D01*
G01X74413Y10475D01*
G01X74387Y10537D01*
G01X74360Y10599D01*
G01X74332Y10660D01*
G01X74303Y10722D01*
G01X74272Y10784D01*
G01X74241Y10845D01*
G01X74208Y10906D01*
G01X74140Y11028D01*
G01X74103Y11088D01*
G01X74036Y11203D01*
G01X73982Y11303D01*
G01X73945Y11379D01*
G01X73931Y11420D01*
G01X73945Y11444D01*
G01X73983Y11477D01*
G01X74038Y11513D01*
G01X74106Y11549D01*
G01X74158Y11577D01*
G01X74208Y11609D01*
G01X74255Y11644D01*
G01X74301Y11683D01*
G01X74343Y11726D01*
G01X74382Y11772D01*
G01X74419Y11821D01*
G01X74453Y11873D01*
G01X74483Y11929D01*
G01X74511Y11987D01*
G01X74535Y12048D01*
G01X74555Y12111D01*
G01X74567Y12156D01*
G01X74576Y12206D01*
G01X74584Y12259D01*
G01X74590Y12316D01*
G01X74594Y12376D01*
G01X74596Y12438D01*
G01X74596Y12501D01*
G01X74594Y12567D01*
G01X74591Y12633D01*
G01X74586Y12699D01*
G01X74579Y12766D01*
G01X74570Y12832D01*
G01X74560Y12898D01*
G01X74547Y12962D01*
G01X74533Y13024D01*
G01X74517Y13083D01*
G01X74504Y13130D01*
G01X74490Y13171D01*
G01X74475Y13209D01*
G01X74457Y13246D01*
G01X74435Y13283D01*
G01X74406Y13322D01*
G01X74371Y13364D01*
G01X74326Y13413D01*
G01X74272Y13470D01*
G01X74207Y13536D01*
G01X74128Y13613D01*
G01X74035Y13703D01*
G01X73937Y13797D01*
G01X73889Y13842D01*
G01X73791Y13932D01*
G01X73741Y13976D01*
G01X73692Y14020D01*
G01X73643Y14063D01*
G01X73543Y14148D01*
G01X73493Y14190D01*
G01X73443Y14231D01*
G01X73392Y14272D01*
G01X73342Y14313D01*
G01X73291Y14352D01*
G01X73240Y14392D01*
G01X73188Y14432D01*
G01X73084Y14509D01*
G01X73032Y14547D01*
G01X72979Y14585D01*
G01X72873Y14659D01*
G01X72819Y14696D01*
G01X72765Y14732D01*
G01X72600Y14840D01*
G01X72544Y14875D01*
G01X72431Y14944D01*
G01X72374Y14978D01*
G01X72258Y15046D01*
G01X72199Y15080D01*
G01X72081Y15146D01*
G01X72020Y15179D01*
G01X71960Y15212D01*
G01X71898Y15245D01*
G01X71816Y15289D01*
G01X71746Y15328D01*
G01X71688Y15364D01*
G01X71640Y15397D01*
G01X71601Y15428D01*
G01X71571Y15458D01*
G01X71547Y15487D01*
G01X71529Y15517D01*
G01X71500Y15568D01*
G01X71468Y15616D01*
G01X71432Y15663D01*
G01X71392Y15706D01*
G01X71349Y15747D01*
G01X71302Y15785D01*
G01X71252Y15820D01*
G01X71199Y15852D01*
G01X71144Y15880D01*
G01X71086Y15905D01*
G01X71026Y15926D01*
G01X70963Y15944D01*
G01X70903Y15957D01*
G01X70857Y15965D01*
G37*
G36*
G01X74322Y11418D02*
G01X74268Y11418D01*
G01X74219Y11409D01*
G01X74177Y11389D01*
G01X74166Y11366D01*
G01X74176Y11322D01*
G01X74206Y11256D01*
G01X74257Y11163D01*
G01X74286Y11114D01*
G01X74315Y11062D01*
G01X74344Y11007D01*
G01X74374Y10950D01*
G01X74403Y10891D01*
G01X74461Y10769D01*
G01X74490Y10706D01*
G01X74518Y10642D01*
G01X74545Y10578D01*
G01X74572Y10513D01*
G01X74598Y10449D01*
G01X74623Y10385D01*
G01X74647Y10322D01*
G01X74670Y10260D01*
G01X74691Y10199D01*
G01X74711Y10140D01*
G01X74729Y10082D01*
G01X74746Y10026D01*
G01X74761Y9973D01*
G01X74776Y9912D01*
G01X74790Y9848D01*
G01X74802Y9782D01*
G01X74814Y9715D01*
G01X74823Y9646D01*
G01X74831Y9577D01*
G01X74838Y9507D01*
G01X74843Y9436D01*
G01X74847Y9365D01*
G01X74849Y9295D01*
G01X74850Y9225D01*
G01X74850Y9156D01*
G01X74848Y9088D01*
G01X74844Y9020D01*
G01X74839Y8955D01*
G01X74832Y8892D01*
G01X74824Y8832D01*
G01X74814Y8773D01*
G01X74803Y8718D01*
G01X74790Y8666D01*
G01X74766Y8576D01*
G01X74744Y8492D01*
G01X74726Y8424D01*
G01X74715Y8381D01*
G01X74714Y8360D01*
G01X74722Y8338D01*
G01X74744Y8314D01*
G01X74781Y8285D01*
G01X74837Y8250D01*
G01X74914Y8207D01*
G01X75016Y8154D01*
G01X75144Y8089D01*
G01X75244Y8040D01*
G01X75337Y7995D01*
G01X75424Y7955D01*
G01X75506Y7919D01*
G01X75581Y7888D01*
G01X75651Y7861D01*
G01X75716Y7839D01*
G01X75775Y7822D01*
G01X75829Y7810D01*
G01X75877Y7802D01*
G01X75921Y7799D01*
G01X75960Y7800D01*
G01X75993Y7806D01*
G01X76022Y7817D01*
G01X76047Y7833D01*
G01X76066Y7853D01*
G01X76082Y7878D01*
G01X76093Y7908D01*
G01X76100Y7943D01*
G01X76103Y7982D01*
G01X76103Y8026D01*
G01X76098Y8075D01*
G01X76090Y8128D01*
G01X76078Y8187D01*
G01X76069Y8224D01*
G01X76058Y8267D01*
G01X76045Y8316D01*
G01X76030Y8370D01*
G01X76013Y8429D01*
G01X75994Y8492D01*
G01X75974Y8558D01*
G01X75953Y8627D01*
G01X75930Y8699D01*
G01X75907Y8774D01*
G01X75883Y8850D01*
G01X75833Y9004D01*
G01X75781Y9159D01*
G01X75755Y9235D01*
G01X75730Y9310D01*
G01X75705Y9382D01*
G01X75680Y9452D01*
G01X75656Y9519D01*
G01X75633Y9583D01*
G01X75611Y9642D01*
G01X75590Y9697D01*
G01X75571Y9747D01*
G01X75539Y9825D01*
G01X75475Y9977D01*
G01X75442Y10052D01*
G01X75408Y10126D01*
G01X75374Y10199D01*
G01X75340Y10270D01*
G01X75306Y10340D01*
G01X75272Y10408D01*
G01X75237Y10475D01*
G01X75203Y10540D01*
G01X75168Y10603D01*
G01X75134Y10664D01*
G01X75100Y10724D01*
G01X75066Y10781D01*
G01X75032Y10835D01*
G01X74999Y10887D01*
G01X74966Y10937D01*
G01X74934Y10984D01*
G01X74902Y11028D01*
G01X74871Y11069D01*
G01X74840Y11107D01*
G01X74811Y11142D01*
G01X74782Y11174D01*
G01X74754Y11202D01*
G01X74727Y11227D01*
G01X74701Y11249D01*
G01X74677Y11266D01*
G01X74596Y11316D01*
G01X74520Y11356D01*
G01X74448Y11387D01*
G01X74382Y11407D01*
G01X74322Y11418D01*
G37*
G36*
G01X69782Y11479D02*
G01X69731Y11479D01*
G01X69680Y11472D01*
G01X69627Y11456D01*
G01X69574Y11432D01*
G01X69545Y11416D01*
G01X69516Y11397D01*
G01X69486Y11374D01*
G01X69455Y11348D01*
G01X69424Y11319D01*
G01X69392Y11287D01*
G01X69360Y11252D01*
G01X69327Y11214D01*
G01X69294Y11173D01*
G01X69260Y11129D01*
G01X69226Y11082D01*
G01X69191Y11033D01*
G01X69157Y10981D01*
G01X69121Y10926D01*
G01X69086Y10869D01*
G01X69050Y10809D01*
G01X69014Y10746D01*
G01X68978Y10681D01*
G01X68942Y10614D01*
G01X68906Y10544D01*
G01X68869Y10472D01*
G01X68833Y10398D01*
G01X68796Y10321D01*
G01X68760Y10242D01*
G01X68723Y10161D01*
G01X68687Y10078D01*
G01X68651Y9993D01*
G01X68614Y9906D01*
G01X68586Y9837D01*
G01X68530Y9697D01*
G01X68422Y9409D01*
G01X68396Y9336D01*
G01X68346Y9194D01*
G01X68322Y9123D01*
G01X68298Y9054D01*
G01X68276Y8985D01*
G01X68254Y8918D01*
G01X68233Y8852D01*
G01X68213Y8788D01*
G01X68194Y8726D01*
G01X68177Y8666D01*
G01X68160Y8608D01*
G01X68145Y8553D01*
G01X68130Y8501D01*
G01X68118Y8451D01*
G01X68107Y8405D01*
G01X68097Y8361D01*
G01X68089Y8321D01*
G01X68082Y8285D01*
G01X68077Y8253D01*
G01X68074Y8224D01*
G01X68065Y8099D01*
G01X68070Y8022D01*
G01X68094Y7968D01*
G01X68141Y7915D01*
G01X68189Y7874D01*
G01X68237Y7848D01*
G01X68291Y7833D01*
G01X68355Y7830D01*
G01X68404Y7832D01*
G01X68451Y7837D01*
G01X68499Y7845D01*
G01X68547Y7858D01*
G01X68599Y7874D01*
G01X68655Y7896D01*
G01X68716Y7924D01*
G01X68784Y7957D01*
G01X68859Y7997D01*
G01X68945Y8044D01*
G01X69041Y8099D01*
G01X69149Y8163D01*
G01X69270Y8235D01*
G01X69365Y8294D01*
G01X69438Y8342D01*
G01X69492Y8380D01*
G01X69528Y8411D01*
G01X69549Y8437D01*
G01X69557Y8460D01*
G01X69555Y8481D01*
G01X69544Y8522D01*
G01X69527Y8583D01*
G01X69506Y8656D01*
G01X69484Y8733D01*
G01X69473Y8778D01*
G01X69461Y8827D01*
G01X69452Y8878D01*
G01X69443Y8932D01*
G01X69435Y8988D01*
G01X69428Y9046D01*
G01X69423Y9105D01*
G01X69418Y9166D01*
G01X69415Y9228D01*
G01X69411Y9352D01*
G01X69411Y9415D01*
G01X69413Y9477D01*
G01X69415Y9538D01*
G01X69418Y9599D01*
G01X69423Y9658D01*
G01X69428Y9715D01*
G01X69435Y9771D01*
G01X69444Y9825D01*
G01X69453Y9875D01*
G01X69464Y9929D01*
G01X69477Y9983D01*
G01X69491Y10039D01*
G01X69507Y10095D01*
G01X69524Y10152D01*
G01X69542Y10210D01*
G01X69562Y10269D01*
G01X69583Y10328D01*
G01X69605Y10388D01*
G01X69627Y10447D01*
G01X69651Y10507D01*
G01X69677Y10568D01*
G01X69703Y10628D01*
G01X69730Y10687D01*
G01X69758Y10747D01*
G01X69786Y10806D01*
G01X69815Y10864D01*
G01X69846Y10921D01*
G01X69876Y10978D01*
G01X69908Y11034D01*
G01X70069Y11314D01*
G01X69969Y11398D01*
G01X69925Y11430D01*
G01X69879Y11454D01*
G01X69831Y11470D01*
G01X69782Y11479D01*
G37*
G36*
G01X72137Y13189D02*
G01X72003Y13192D01*
G01X72012Y12630D01*
G01X72014Y12520D01*
G01X72016Y12416D01*
G01X72019Y12319D01*
G01X72022Y12230D01*
G01X72025Y12148D01*
G01X72028Y12073D01*
G01X72032Y12005D01*
G01X72036Y11945D01*
G01X72041Y11891D01*
G01X72046Y11845D01*
G01X72051Y11806D01*
G01X72057Y11773D01*
G01X72062Y11748D01*
G01X72069Y11731D01*
G01X72075Y11721D01*
G01X72082Y11717D01*
G01X72099Y11724D01*
G01X72126Y11744D01*
G01X72160Y11774D01*
G01X72201Y11814D01*
G01X72247Y11861D01*
G01X72296Y11914D01*
G01X72346Y11969D01*
G01X72395Y12026D01*
G01X72442Y12083D01*
G01X72484Y12137D01*
G01X72522Y12187D01*
G01X72551Y12231D01*
G01X72573Y12269D01*
G01X72597Y12313D01*
G01X72623Y12364D01*
G01X72649Y12418D01*
G01X72675Y12475D01*
G01X72700Y12533D01*
G01X72723Y12589D01*
G01X72743Y12642D01*
G01X72794Y12786D01*
G01X72814Y12868D01*
G01X72805Y12917D01*
G01X72770Y12961D01*
G01X72738Y12994D01*
G01X72700Y13024D01*
G01X72659Y13052D01*
G01X72612Y13078D01*
G01X72563Y13101D01*
G01X72509Y13122D01*
G01X72453Y13140D01*
G01X72394Y13156D01*
G01X72333Y13169D01*
G01X72269Y13178D01*
G01X72204Y13185D01*
G01X72137Y13189D01*
G37*
G36*
G01X71830Y12637D02*
G01X71808Y13200D01*
G01X71620Y13180D01*
G01X71538Y13169D01*
G01X71451Y13155D01*
G01X71370Y13139D01*
G01X71305Y13123D01*
G01X71248Y13102D01*
G01X71184Y13070D01*
G01X71124Y13033D01*
G01X71073Y12994D01*
G01X70969Y12900D01*
G01X71047Y12691D01*
G01X71068Y12636D01*
G01X71116Y12528D01*
G01X71143Y12475D01*
G01X71171Y12423D01*
G01X71201Y12372D01*
G01X71232Y12321D01*
G01X71265Y12272D01*
G01X71299Y12224D01*
G01X71335Y12176D01*
G01X71372Y12129D01*
G01X71452Y12039D01*
G01X71494Y11995D01*
G01X71538Y11952D01*
G01X71584Y11909D01*
G01X71669Y11835D01*
G01X71742Y11773D01*
G01X71797Y11732D01*
G01X71825Y11717D01*
G01X71830Y11719D01*
G01X71835Y11726D01*
G01X71840Y11738D01*
G01X71843Y11757D01*
G01X71846Y11781D01*
G01X71848Y11813D01*
G01X71850Y11853D01*
G01X71850Y12022D01*
G01X71848Y12097D01*
G01X71846Y12182D01*
G01X71843Y12278D01*
G01X71839Y12386D01*
G01X71835Y12505D01*
G01X71830Y12637D01*
G37*
G36*
G01X70397Y12950D02*
G01X70360Y12955D01*
G01X70324Y12953D01*
G01X70277Y12946D01*
G01X70223Y12936D01*
G01X70169Y12922D01*
G01X70133Y12910D01*
G01X70100Y12892D01*
G01X70071Y12871D01*
G01X70046Y12843D01*
G01X70024Y12811D01*
G01X70006Y12772D01*
G01X69991Y12726D01*
G01X69979Y12674D01*
G01X69970Y12614D01*
G01X69964Y12546D01*
G01X69960Y12470D01*
G01X69959Y12385D01*
G01X69959Y12309D01*
G01X69961Y12247D01*
G01X69966Y12195D01*
G01X69974Y12151D01*
G01X69986Y12111D01*
G01X70002Y12073D01*
G01X70023Y12034D01*
G01X70050Y11992D01*
G01X70097Y11927D01*
G01X70147Y11873D01*
G01X70200Y11829D01*
G01X70258Y11794D01*
G01X70322Y11768D01*
G01X70394Y11750D01*
G01X70473Y11740D01*
G01X70561Y11737D01*
G01X70638Y11740D01*
G01X70707Y11748D01*
G01X70770Y11762D01*
G01X70830Y11781D01*
G01X70889Y11808D01*
G01X70948Y11843D01*
G01X71009Y11887D01*
G01X71073Y11940D01*
G01X71183Y12035D01*
G01X71082Y12186D01*
G01X71060Y12221D01*
G01X71036Y12265D01*
G01X71010Y12313D01*
G01X70984Y12367D01*
G01X70959Y12422D01*
G01X70934Y12479D01*
G01X70911Y12535D01*
G01X70891Y12589D01*
G01X70856Y12687D01*
G01X70826Y12768D01*
G01X70806Y12824D01*
G01X70797Y12847D01*
G01X70778Y12856D01*
G01X70733Y12871D01*
G01X70671Y12888D01*
G01X70599Y12906D01*
G01X70524Y12924D01*
G01X70453Y12940D01*
G01X70397Y12950D01*
G37*
G36*
G01X73557Y13054D02*
G01X73493Y13055D01*
G01X73427Y13052D01*
G01X73361Y13045D01*
G01X73298Y13033D01*
G01X73242Y13018D01*
G01X73196Y12999D01*
G01X73152Y12976D01*
G01X73117Y12954D01*
G01X73088Y12929D01*
G01X73062Y12892D01*
G01X73035Y12841D01*
G01X73003Y12769D01*
G01X72962Y12670D01*
G01X72911Y12538D01*
G01X72794Y12237D01*
G01X72868Y12157D01*
G01X72904Y12122D01*
G01X72944Y12089D01*
G01X72988Y12059D01*
G01X73036Y12031D01*
G01X73087Y12005D01*
G01X73142Y11984D01*
G01X73199Y11964D01*
G01X73258Y11948D01*
G01X73319Y11935D01*
G01X73381Y11926D01*
G01X73444Y11920D01*
G01X73508Y11918D01*
G01X73587Y11919D01*
G01X73659Y11923D01*
G01X73725Y11929D01*
G01X73784Y11937D01*
G01X73837Y11948D01*
G01X73883Y11962D01*
G01X73925Y11979D01*
G01X73960Y11998D01*
G01X73990Y12021D01*
G01X74016Y12047D01*
G01X74036Y12076D01*
G01X74053Y12108D01*
G01X74068Y12151D01*
G01X74080Y12200D01*
G01X74089Y12251D01*
G01X74095Y12306D01*
G01X74097Y12363D01*
G01X74097Y12422D01*
G01X74093Y12480D01*
G01X74086Y12539D01*
G01X74077Y12597D01*
G01X74064Y12652D01*
G01X74048Y12705D01*
G01X74029Y12754D01*
G01X74004Y12808D01*
G01X73976Y12853D01*
G01X73946Y12892D01*
G01X73909Y12925D01*
G01X73865Y12954D01*
G01X73810Y12982D01*
G01X73743Y13008D01*
G01X73662Y13036D01*
G01X73614Y13047D01*
G01X73557Y13054D01*
G37*

%LPD*%
G36*
G01X72671Y14356D02*
G01X72599Y14362D01*
G01X72525Y14360D01*
G01X72450Y14351D01*
G01X72376Y14336D01*
G01X72303Y14313D01*
G01X72232Y14284D01*
G01X72162Y14249D01*
G01X72106Y14215D01*
G01X72063Y14179D01*
G01X72031Y14139D01*
G01X72009Y14092D01*
G01X71996Y14037D01*
G01X71989Y13970D01*
G01X71987Y13890D01*
G01X71990Y13808D01*
G01X71998Y13737D01*
G01X72014Y13677D01*
G01X72036Y13625D01*
G01X72067Y13580D01*
G01X72108Y13540D01*
G01X72158Y13503D01*
G01X72220Y13469D01*
G01X72279Y13442D01*
G01X72341Y13422D01*
G01X72406Y13407D01*
G01X72471Y13397D01*
G01X72537Y13393D01*
G01X72603Y13394D01*
G01X72669Y13400D01*
G01X72733Y13412D01*
G01X72796Y13427D01*
G01X72855Y13448D01*
G01X72912Y13473D01*
G01X72964Y13502D01*
G01X73012Y13535D01*
G01X73054Y13573D01*
G01X73091Y13614D01*
G01X73121Y13660D01*
G01X73147Y13711D01*
G01X73166Y13762D01*
G01X73179Y13813D01*
G01X73186Y13863D01*
G01X73186Y13912D01*
G01X73180Y13959D01*
G01X73169Y14005D01*
G01X73151Y14050D01*
G01X73128Y14093D01*
G01X73098Y14134D01*
G01X73064Y14172D01*
G01X73023Y14208D01*
G01X72977Y14242D01*
G01X72926Y14272D01*
G01X72870Y14300D01*
G01X72808Y14325D01*
G01X72741Y14344D01*
G01X72671Y14356D01*
G37*

%LPC*%
G36*
G01X72565Y14196D02*
G01X72498Y14198D01*
G01X72440Y14193D01*
G01X72397Y14183D01*
G01X72374Y14167D01*
G01X72374Y14153D01*
G01X72390Y14139D01*
G01X72418Y14125D01*
G01X72455Y14114D01*
G01X72533Y14082D01*
G01X72597Y14028D01*
G01X72641Y13959D01*
G01X72657Y13884D01*
G01X72645Y13848D01*
G01X72615Y13799D01*
G01X72570Y13742D01*
G01X72514Y13686D01*
G01X72372Y13553D01*
G01X72582Y13568D01*
G01X72665Y13576D01*
G01X72740Y13591D01*
G01X72805Y13612D01*
G01X72861Y13638D01*
G01X72909Y13670D01*
G01X72948Y13709D01*
G01X72979Y13754D01*
G01X73001Y13805D01*
G01X73011Y13852D01*
G01X73011Y13899D01*
G01X73002Y13946D01*
G01X72982Y13991D01*
G01X72955Y14034D01*
G01X72919Y14074D01*
G01X72875Y14109D01*
G01X72824Y14139D01*
G01X72771Y14160D01*
G01X72706Y14177D01*
G01X72636Y14189D01*
G01X72565Y14196D01*
G37*

%LPD*%
G36*
G01X71249Y14345D02*
G01X71189Y14350D01*
G01X71126Y14349D01*
G01X71060Y14342D01*
G01X70992Y14331D01*
G01X70924Y14314D01*
G01X70855Y14292D01*
G01X70788Y14265D01*
G01X70717Y14228D01*
G01X70663Y14187D01*
G01X70622Y14137D01*
G01X70590Y14074D01*
G01X70568Y14007D01*
G01X70556Y13934D01*
G01X70552Y13859D01*
G01X70556Y13783D01*
G01X70568Y13711D01*
G01X70589Y13644D01*
G01X70616Y13585D01*
G01X70651Y13538D01*
G01X70697Y13499D01*
G01X70758Y13463D01*
G01X70829Y13432D01*
G01X70908Y13406D01*
G01X70991Y13387D01*
G01X71073Y13375D01*
G01X71152Y13371D01*
G01X71225Y13377D01*
G01X71306Y13393D01*
G01X71382Y13414D01*
G01X71451Y13441D01*
G01X71514Y13472D01*
G01X71570Y13508D01*
G01X71619Y13547D01*
G01X71662Y13592D01*
G01X71697Y13640D01*
G01X71724Y13692D01*
G01X71744Y13748D01*
G01X71756Y13807D01*
G01X71761Y13870D01*
G01X71757Y13922D01*
G01X71746Y13972D01*
G01X71728Y14021D01*
G01X71703Y14068D01*
G01X71672Y14113D01*
G01X71636Y14155D01*
G01X71593Y14194D01*
G01X71545Y14230D01*
G01X71491Y14263D01*
G01X71433Y14291D01*
G01X71371Y14315D01*
G01X71304Y14335D01*
G01X71249Y14345D01*
G37*

%LPC*%
G36*
G01X71199Y14190D02*
G01X71152Y14192D01*
G01X71106Y14191D01*
G01X71058Y14185D01*
G01X71010Y14175D01*
G01X70962Y14161D01*
G01X70913Y14144D01*
G01X70858Y14118D01*
G01X70808Y14087D01*
G01X70768Y14056D01*
G01X70745Y14028D01*
G01X70721Y13953D01*
G01X70714Y13860D01*
G01X70723Y13767D01*
G01X70749Y13690D01*
G01X70783Y13646D01*
G01X70834Y13608D01*
G01X70898Y13576D01*
G01X70972Y13551D01*
G01X71049Y13535D01*
G01X71126Y13527D01*
G01X71199Y13532D01*
G01X71263Y13548D01*
G01X71286Y13563D01*
G01X71287Y13586D01*
G01X71264Y13625D01*
G01X71213Y13685D01*
G01X71171Y13740D01*
G01X71141Y13792D01*
G01X71125Y13841D01*
G01X71121Y13887D01*
G01X71131Y13931D01*
G01X71153Y13971D01*
G01X71190Y14010D01*
G01X71239Y14047D01*
G01X71310Y14096D01*
G01X71342Y14131D01*
G01X71335Y14156D01*
G01X71291Y14175D01*
G01X71245Y14185D01*
G01X71199Y14190D01*
G37*

%LPD*%
G54D10*
G01X50338Y35479D02*
G01X50338Y29580D01*
G01X44540Y29580D01*
G01X44540Y35479D01*
G01X50338Y35479D01*
G01X64103Y64029D02*
G01X61503Y64029D01*
G01X20923Y34692D02*
G01X18323Y34692D01*
G01X77057Y34692D02*
G01X74457Y34692D01*
G01X32988Y64029D02*
G01X30388Y64029D01*
G01X9366Y6371D02*
G01X6766Y6371D01*
G01X29940Y18944D02*
G01X27340Y18944D01*
G01X67786Y18944D02*
G01X65186Y18944D01*
G01X88106Y6371D02*
G01X85506Y6371D01*
G01X48736Y83206D02*
G01X46136Y83206D01*
G01X36769Y41240D02*
G01X35753Y41240D01*
G01X36261Y41875D02*
G01X36261Y40605D01*
G01X58866Y45939D02*
G01X58866Y51019D01*
G01X58866Y51019D02*
G01X58104Y51019D01*
G01X58104Y51019D02*
G01X57342Y51019D01*
G01X57342Y51019D02*
G01X57342Y45939D01*
G01X57342Y45939D02*
G01X58104Y45939D01*
G01X58104Y45939D02*
G01X58866Y45939D01*
G01X58104Y51019D02*
G01X58104Y51273D01*
G01X58104Y45939D02*
G01X58104Y45685D01*
G01X18861Y12284D02*
G01X18861Y17364D01*
G01X18861Y17364D02*
G01X18099Y17364D01*
G01X18099Y17364D02*
G01X17337Y17364D01*
G01X17337Y17364D02*
G01X17337Y12284D01*
G01X17337Y12284D02*
G01X18099Y12284D01*
G01X18099Y12284D02*
G01X18861Y12284D01*
G01X18099Y17364D02*
G01X18099Y17618D01*
G01X18099Y12284D02*
G01X18099Y12030D01*
G01X56961Y65497D02*
G01X56961Y70577D01*
G01X56961Y70577D02*
G01X56199Y70577D01*
G01X56199Y70577D02*
G01X55437Y70577D01*
G01X55437Y70577D02*
G01X55437Y65497D01*
G01X55437Y65497D02*
G01X56199Y65497D01*
G01X56199Y65497D02*
G01X56961Y65497D01*
G01X56199Y70577D02*
G01X56199Y70831D01*
G01X56199Y65497D02*
G01X56199Y65243D01*
G01X49976Y80737D02*
G01X44896Y80737D01*
G01X44896Y80737D02*
G01X44896Y79975D01*
G01X44896Y79975D02*
G01X44896Y79213D01*
G01X44896Y79213D02*
G01X49976Y79213D01*
G01X49976Y79213D02*
G01X49976Y79975D01*
G01X49976Y79975D02*
G01X49976Y80737D01*
G01X44896Y79975D02*
G01X44642Y79975D01*
G01X49976Y79975D02*
G01X50230Y79975D01*
G01X26862Y35652D02*
G01X26862Y40732D01*
G01X26862Y40732D02*
G01X26100Y40732D01*
G01X26100Y40732D02*
G01X25338Y40732D01*
G01X25338Y40732D02*
G01X25338Y35652D01*
G01X25338Y35652D02*
G01X26100Y35652D01*
G01X26100Y35652D02*
G01X26862Y35652D01*
G01X26100Y40732D02*
G01X26100Y40986D01*
G01X26100Y35652D02*
G01X26100Y35398D01*
G01X65851Y34636D02*
G01X65851Y39716D01*
G01X65851Y39716D02*
G01X65089Y39716D01*
G01X65089Y39716D02*
G01X64327Y39716D01*
G01X64327Y39716D02*
G01X64327Y34636D01*
G01X64327Y34636D02*
G01X65089Y34636D01*
G01X65089Y34636D02*
G01X65851Y34636D01*
G01X65089Y39716D02*
G01X65089Y39970D01*
G01X65089Y34636D02*
G01X65089Y34382D01*
G01X38546Y25111D02*
G01X38546Y30191D01*
G01X38546Y30191D02*
G01X37784Y30191D01*
G01X37784Y30191D02*
G01X37022Y30191D01*
G01X37022Y30191D02*
G01X37022Y25111D01*
G01X37022Y25111D02*
G01X37784Y25111D01*
G01X37784Y25111D02*
G01X38546Y25111D01*
G01X37784Y30191D02*
G01X37784Y30445D01*
G01X37784Y25111D02*
G01X37784Y24857D01*
G01X39435Y65624D02*
G01X39435Y70704D01*
G01X39435Y70704D02*
G01X38673Y70704D01*
G01X38673Y70704D02*
G01X37911Y70704D01*
G01X37911Y70704D02*
G01X37911Y65624D01*
G01X37911Y65624D02*
G01X38673Y65624D01*
G01X38673Y65624D02*
G01X39435Y65624D01*
G01X38673Y70704D02*
G01X38673Y70958D01*
G01X38673Y65624D02*
G01X38673Y65370D01*
G01X60517Y26127D02*
G01X60517Y31207D01*
G01X60517Y31207D02*
G01X59755Y31207D01*
G01X59755Y31207D02*
G01X58993Y31207D01*
G01X58993Y31207D02*
G01X58993Y26127D01*
G01X58993Y26127D02*
G01X59755Y26127D01*
G01X59755Y26127D02*
G01X60517Y26127D01*
G01X59755Y31207D02*
G01X59755Y31461D01*
G01X59755Y26127D02*
G01X59755Y25873D01*
G01X78805Y13554D02*
G01X78805Y18634D01*
G01X78805Y18634D02*
G01X78043Y18634D01*
G01X78043Y18634D02*
G01X77281Y18634D01*
G01X77281Y18634D02*
G01X77281Y13554D01*
G01X77281Y13554D02*
G01X78043Y13554D01*
G01X78043Y13554D02*
G01X78805Y13554D01*
G01X78043Y18634D02*
G01X78043Y18888D01*
G01X78043Y13554D02*
G01X78043Y13300D01*
G01X51270Y18036D02*
G01X51270Y20396D01*
G01X51270Y20396D02*
G01X44111Y20396D01*
G01X44111Y20396D02*
G01X44111Y18036D01*
G01X44111Y18036D02*
G01X51270Y18036D01*
G01X50484Y17946D02*
G01X50484Y17692D01*
G01X44896Y17692D01*
G01X44896Y17946D01*
G01X44896Y17946D01*
G01X44896Y20486D02*
G01X44896Y20740D01*
G01X50484Y20740D01*
G01X50484Y20486D01*
G01X50484Y20486D01*
G01X47944Y41320D02*
G01X49959Y41320D01*
G01X49959Y76720D01*
G01X44659Y76720D01*
G01X44659Y41320D01*
G01X46674Y41320D01*
G54D23*
G01X35064Y16891D02*
G01X35064Y15506D01*
G01X34972Y15228D01*
G01X34787Y15044D01*
G01X34510Y14951D01*
G01X34325Y14951D01*
G01X34048Y15044D01*
G01X33864Y15228D01*
G01X33771Y15506D01*
G01X33771Y16891D01*
G01X33162Y16244D02*
G01X33162Y14305D01*
G01X33162Y15967D02*
G01X32977Y16152D01*
G01X32792Y16244D01*
G01X32515Y16244D01*
G01X32330Y16152D01*
G01X32146Y15967D01*
G01X32053Y15690D01*
G01X32053Y15506D01*
G01X32146Y15228D01*
G01X32330Y15044D01*
G01X32515Y14951D01*
G01X32792Y14951D01*
G01X32977Y15044D01*
G01X33162Y15228D01*
G01X31444Y16244D02*
G01X31444Y14305D01*
G01X31444Y15967D02*
G01X31259Y16152D01*
G01X31074Y16244D01*
G01X30797Y16244D01*
G01X30612Y16152D01*
G01X30428Y15967D01*
G01X30335Y15690D01*
G01X30335Y15506D01*
G01X30428Y15228D01*
G01X30612Y15044D01*
G01X30797Y14951D01*
G01X31074Y14951D01*
G01X31259Y15044D01*
G01X31444Y15228D01*
G01X29726Y15690D02*
G01X28617Y15690D01*
G01X28617Y15875D01*
G01X28710Y16060D01*
G01X28802Y16152D01*
G01X28987Y16244D01*
G01X29264Y16244D01*
G01X29449Y16152D01*
G01X29633Y15967D01*
G01X29726Y15690D01*
G01X29726Y15506D01*
G01X29633Y15228D01*
G01X29449Y15044D01*
G01X29264Y14951D01*
G01X28987Y14951D01*
G01X28802Y15044D01*
G01X28617Y15228D01*
G01X28008Y16244D02*
G01X28008Y14951D01*
G01X28008Y15690D02*
G01X27915Y15967D01*
G01X27731Y16152D01*
G01X27546Y16244D01*
G01X27269Y16244D01*
G01X25551Y16244D02*
G01X25551Y14951D01*
G01X25551Y15967D02*
G01X25736Y16152D01*
G01X25920Y16244D01*
G01X26197Y16244D01*
G01X26382Y16152D01*
G01X26567Y15967D01*
G01X26659Y15690D01*
G01X26659Y15506D01*
G01X26567Y15228D01*
G01X26382Y15044D01*
G01X26197Y14951D01*
G01X25920Y14951D01*
G01X25736Y15044D01*
G01X25551Y15228D01*
G01X24941Y16891D02*
G01X24849Y16799D01*
G01X24757Y16891D01*
G01X24849Y16983D01*
G01X24941Y16891D01*
G01X24849Y16244D02*
G01X24849Y14951D01*
G01X24147Y16244D02*
G01X24147Y14951D01*
G01X24147Y15690D02*
G01X24055Y15967D01*
G01X23870Y16152D01*
G01X23685Y16244D01*
G01X23408Y16244D01*
G01X21782Y15967D02*
G01X21875Y16152D01*
G01X22152Y16244D01*
G01X22429Y16244D01*
G01X22706Y16152D01*
G01X22798Y15967D01*
G01X22706Y15783D01*
G01X22521Y15690D01*
G01X22060Y15598D01*
G01X21875Y15506D01*
G01X21782Y15321D01*
G01X21782Y15228D01*
G01X21875Y15044D01*
G01X22152Y14951D01*
G01X22429Y14951D01*
G01X22706Y15044D01*
G01X22798Y15228D01*
G01X31071Y13222D02*
G01X31071Y13313D01*
G01X30977Y13498D01*
G01X30886Y13590D01*
G01X30700Y13681D01*
G01X30332Y13681D01*
G01X30147Y13590D01*
G01X30055Y13498D01*
G01X29961Y13313D01*
G01X29961Y13128D01*
G01X30055Y12942D01*
G01X30238Y12665D01*
G01X31163Y11743D01*
G01X29870Y11743D01*
G01X28707Y13681D02*
G01X28983Y13590D01*
G01X29169Y13313D01*
G01X29260Y12851D01*
G01X29260Y12574D01*
G01X29169Y12112D01*
G01X28983Y11835D01*
G01X28707Y11743D01*
G01X28521Y11743D01*
G01X28244Y11835D01*
G01X28059Y12112D01*
G01X27967Y12574D01*
G01X27967Y12851D01*
G01X28059Y13313D01*
G01X28244Y13590D01*
G01X28521Y13681D01*
G01X28707Y13681D01*
G01X27358Y13313D02*
G01X27172Y13405D01*
G01X26895Y13681D01*
G01X26895Y11743D01*
G01X25084Y13036D02*
G01X25178Y12759D01*
G01X25361Y12574D01*
G01X25638Y12482D01*
G01X25732Y12482D01*
G01X26009Y12574D01*
G01X26194Y12759D01*
G01X26286Y13036D01*
G01X26286Y13128D01*
G01X26194Y13405D01*
G01X26009Y13590D01*
G01X25732Y13681D01*
G01X25638Y13681D01*
G01X25361Y13590D01*
G01X25178Y13405D01*
G01X25084Y13036D01*
G01X25084Y12574D01*
G01X25178Y12112D01*
G01X25361Y11835D01*
G01X25638Y11743D01*
G01X25824Y11743D01*
G01X26100Y11835D01*
G01X26194Y12020D01*
G01X20385Y33921D02*
G01X18723Y33921D01*
G01X29402Y18173D02*
G01X27740Y18173D01*
G01X8955Y5600D02*
G01X7293Y5600D01*
G01X67248Y18173D02*
G01X65586Y18173D01*
G01X87695Y5600D02*
G01X86033Y5600D01*
G01X63692Y63131D02*
G01X62030Y63131D01*
G01X45150Y83451D02*
G01X43488Y83451D01*
G01X32450Y63131D02*
G01X30788Y63131D01*
G01X76646Y33921D02*
G01X74984Y33921D01*
G54D24*
G01X53468Y37049D02*
G01X53468Y35958D01*
G01X53468Y37049D02*
G01X53000Y37049D01*
G01X52844Y36997D01*
G01X52792Y36946D01*
G01X52740Y36842D01*
G01X52740Y36738D01*
G01X52792Y36634D01*
G01X52844Y36582D01*
G01X53000Y36530D01*
G01X53468Y36530D02*
G01X53000Y36530D01*
G01X52844Y36478D01*
G01X52792Y36426D01*
G01X52740Y36322D01*
G01X52740Y36166D01*
G01X52792Y36062D01*
G01X52844Y36010D01*
G01X53000Y35958D01*
G01X53468Y35958D01*
G01X52398Y36686D02*
G01X52398Y36166D01*
G01X52346Y36010D01*
G01X52242Y35958D01*
G01X52086Y35958D01*
G01X51982Y36010D01*
G01X51826Y36166D01*
G01X51826Y36686D02*
G01X51826Y35958D01*
G01X51327Y37049D02*
G01X51327Y36166D01*
G01X51275Y36010D01*
G01X51171Y35958D01*
G01X51068Y35958D01*
G01X51483Y36686D02*
G01X51119Y36686D01*
G01X50569Y37049D02*
G01X50569Y36166D01*
G01X50517Y36010D01*
G01X50413Y35958D01*
G01X50309Y35958D01*
G01X50725Y36686D02*
G01X50361Y36686D01*
G01X49706Y36686D02*
G01X49810Y36634D01*
G01X49914Y36530D01*
G01X49966Y36374D01*
G01X49966Y36270D01*
G01X49914Y36114D01*
G01X49810Y36010D01*
G01X49706Y35958D01*
G01X49550Y35958D01*
G01X49447Y36010D01*
G01X49343Y36114D01*
G01X49291Y36270D01*
G01X49291Y36374D01*
G01X49343Y36530D01*
G01X49447Y36634D01*
G01X49550Y36686D01*
G01X49706Y36686D01*
G01X48948Y36686D02*
G01X48948Y35958D01*
G01X48948Y36478D02*
G01X48792Y36634D01*
G01X48688Y36686D01*
G01X48532Y36686D01*
G01X48428Y36634D01*
G01X48376Y36478D01*
G01X48376Y35958D01*
G01X47774Y36686D02*
G01X47878Y36634D01*
G01X47981Y36530D01*
G01X48033Y36374D01*
G01X48033Y36270D01*
G01X47981Y36114D01*
G01X47878Y36010D01*
G01X47774Y35958D01*
G01X47618Y35958D01*
G01X47514Y36010D01*
G01X47410Y36114D01*
G01X47358Y36270D01*
G01X47358Y36374D01*
G01X47410Y36530D01*
G01X47514Y36634D01*
G01X47618Y36686D01*
G01X47774Y36686D01*
G01X47015Y36686D02*
G01X47015Y35958D01*
G01X47015Y36478D02*
G01X46859Y36634D01*
G01X46755Y36686D01*
G01X46599Y36686D01*
G01X46496Y36634D01*
G01X46444Y36478D01*
G01X46444Y35958D01*
G01X46101Y37049D02*
G01X46101Y35958D01*
G01X46101Y37049D02*
G01X45425Y37049D01*
G01X46101Y36530D02*
G01X45685Y36530D01*
G01X45082Y36686D02*
G01X45082Y35958D01*
G01X45082Y36374D02*
G01X45030Y36530D01*
G01X44926Y36634D01*
G01X44823Y36686D01*
G01X44667Y36686D01*
G01X44064Y36686D02*
G01X44168Y36634D01*
G01X44272Y36530D01*
G01X44324Y36374D01*
G01X44324Y36270D01*
G01X44272Y36114D01*
G01X44168Y36010D01*
G01X44064Y35958D01*
G01X43908Y35958D01*
G01X43804Y36010D01*
G01X43700Y36114D01*
G01X43648Y36270D01*
G01X43648Y36374D01*
G01X43700Y36530D01*
G01X43804Y36634D01*
G01X43908Y36686D01*
G01X44064Y36686D01*
G01X43306Y36686D02*
G01X43306Y35958D01*
G01X43306Y36478D02*
G01X43150Y36634D01*
G01X43046Y36686D01*
G01X42890Y36686D01*
G01X42786Y36634D01*
G01X42734Y36478D01*
G01X42734Y35958D01*
G01X42235Y37049D02*
G01X42235Y36166D01*
G01X42183Y36010D01*
G01X42079Y35958D01*
G01X41975Y35958D01*
G01X42391Y36686D02*
G01X42027Y36686D01*
G01X62803Y70205D02*
G01X62803Y69115D01*
G01X62803Y70205D02*
G01X62336Y70205D01*
G01X62181Y70154D01*
G01X62128Y70100D01*
G01X62077Y69996D01*
G01X62077Y69892D01*
G01X62128Y69790D01*
G01X62181Y69737D01*
G01X62336Y69686D01*
G01X62803Y69686D02*
G01X62336Y69686D01*
G01X62181Y69633D01*
G01X62128Y69582D01*
G01X62077Y69478D01*
G01X62077Y69321D01*
G01X62128Y69219D01*
G01X62181Y69166D01*
G01X62336Y69115D01*
G01X62803Y69115D01*
G01X61734Y70205D02*
G01X61734Y69115D01*
G01X61734Y69115D02*
G01X61109Y69115D01*
G01X60766Y70205D02*
G01X60766Y69115D01*
G01X60766Y70205D02*
G01X60091Y70205D01*
G01X60766Y69686D02*
G01X60352Y69686D01*
G01X60766Y69115D02*
G01X60091Y69115D01*
G01X59748Y70205D02*
G01X59748Y69115D01*
G01X59748Y70205D02*
G01X59385Y70205D01*
G01X59230Y70154D01*
G01X59126Y70050D01*
G01X59072Y69945D01*
G01X59021Y69790D01*
G01X59021Y69529D01*
G01X59072Y69374D01*
G01X59126Y69270D01*
G01X59230Y69166D01*
G01X59385Y69115D01*
G01X59748Y69115D01*
G01X58625Y69945D02*
G01X58625Y69996D01*
G01X58574Y70100D01*
G01X58524Y70154D01*
G01X58419Y70205D01*
G01X58211Y70205D01*
G01X58107Y70154D01*
G01X58054Y70100D01*
G01X58003Y69996D01*
G01X58003Y69892D01*
G01X58054Y69790D01*
G01X58158Y69633D01*
G01X58679Y69115D01*
G01X57952Y69115D01*
G01X22900Y41362D02*
G01X22953Y41466D01*
G01X23058Y41571D01*
G01X23159Y41621D01*
G01X23367Y41621D01*
G01X23472Y41571D01*
G01X23576Y41466D01*
G01X23629Y41362D01*
G01X23680Y41207D01*
G01X23680Y40946D01*
G01X23629Y40791D01*
G01X23576Y40687D01*
G01X23472Y40583D01*
G01X23367Y40532D01*
G01X23159Y40532D01*
G01X23058Y40583D01*
G01X22953Y40687D01*
G01X22900Y40791D01*
G01X22900Y40946D01*
G01X23159Y40946D02*
G01X22900Y40946D01*
G01X22557Y41621D02*
G01X22557Y40532D01*
G01X22557Y40532D02*
G01X21935Y40532D01*
G01X21592Y41621D02*
G01X21592Y40532D01*
G01X21592Y41621D02*
G01X20916Y41621D01*
G01X21592Y41103D02*
G01X21175Y41103D01*
G01X21592Y40532D02*
G01X20916Y40532D01*
G01X20573Y41621D02*
G01X20573Y40532D01*
G01X20573Y41621D02*
G01X20210Y41621D01*
G01X20053Y41571D01*
G01X19949Y41466D01*
G01X19898Y41362D01*
G01X19844Y41207D01*
G01X19844Y40946D01*
G01X19898Y40791D01*
G01X19949Y40687D01*
G01X20053Y40583D01*
G01X20210Y40532D01*
G01X20573Y40532D01*
G01X19502Y41413D02*
G01X19400Y41466D01*
G01X19242Y41621D01*
G01X19242Y40532D01*
G01X75183Y40981D02*
G01X75237Y41085D01*
G01X75341Y41190D01*
G01X75443Y41240D01*
G01X75651Y41240D01*
G01X75755Y41190D01*
G01X75859Y41085D01*
G01X75912Y40981D01*
G01X75963Y40826D01*
G01X75963Y40565D01*
G01X75912Y40410D01*
G01X75859Y40306D01*
G01X75755Y40202D01*
G01X75651Y40151D01*
G01X75443Y40151D01*
G01X75341Y40202D01*
G01X75237Y40306D01*
G01X75183Y40410D01*
G01X75183Y40565D01*
G01X75443Y40565D02*
G01X75183Y40565D01*
G01X74841Y41240D02*
G01X74841Y40151D01*
G01X74841Y40151D02*
G01X74218Y40151D01*
G01X73875Y41240D02*
G01X73875Y40151D01*
G01X73875Y41240D02*
G01X73200Y41240D01*
G01X73875Y40722D02*
G01X73459Y40722D01*
G01X73875Y40151D02*
G01X73200Y40151D01*
G01X72857Y41240D02*
G01X72857Y40151D01*
G01X72857Y41240D02*
G01X72494Y41240D01*
G01X72336Y41190D01*
G01X72232Y41085D01*
G01X72181Y40981D01*
G01X72128Y40826D01*
G01X72128Y40565D01*
G01X72181Y40410D01*
G01X72232Y40306D01*
G01X72336Y40202D01*
G01X72494Y40151D01*
G01X72857Y40151D01*
G01X71734Y40981D02*
G01X71734Y41032D01*
G01X71683Y41136D01*
G01X71630Y41190D01*
G01X71526Y41240D01*
G01X71318Y41240D01*
G01X71213Y41190D01*
G01X71163Y41136D01*
G01X71112Y41032D01*
G01X71112Y40928D01*
G01X71163Y40826D01*
G01X71267Y40669D01*
G01X71785Y40151D01*
G01X71059Y40151D01*
G01X36581Y70704D02*
G01X36581Y69615D01*
G01X36581Y70704D02*
G01X36113Y70704D01*
G01X35958Y70654D01*
G01X35905Y70600D01*
G01X35854Y70496D01*
G01X35854Y70392D01*
G01X35905Y70290D01*
G01X35958Y70237D01*
G01X36113Y70186D01*
G01X36581Y70186D01*
G01X36217Y70186D02*
G01X35854Y69615D01*
G01X35511Y70704D02*
G01X35511Y69615D01*
G01X35511Y69615D02*
G01X34886Y69615D01*
G01X34543Y70704D02*
G01X34543Y69615D01*
G01X34543Y70704D02*
G01X33868Y70704D01*
G01X34543Y70186D02*
G01X34129Y70186D01*
G01X34543Y69615D02*
G01X33868Y69615D01*
G01X33525Y70704D02*
G01X33525Y69615D01*
G01X33525Y70704D02*
G01X33162Y70704D01*
G01X33007Y70654D01*
G01X32903Y70549D01*
G01X32849Y70445D01*
G01X32798Y70290D01*
G01X32798Y70029D01*
G01X32849Y69874D01*
G01X32903Y69770D01*
G01X33007Y69666D01*
G01X33162Y69615D01*
G01X33525Y69615D01*
G01X32456Y70496D02*
G01X32351Y70549D01*
G01X32196Y70704D01*
G01X32196Y69615D01*
G01X12070Y13173D02*
G01X12070Y12084D01*
G01X12070Y13173D02*
G01X11602Y13173D01*
G01X11447Y13123D01*
G01X11394Y13069D01*
G01X11343Y12965D01*
G01X11343Y12861D01*
G01X11394Y12759D01*
G01X11447Y12706D01*
G01X11602Y12655D01*
G01X12070Y12655D02*
G01X11602Y12655D01*
G01X11447Y12602D01*
G01X11394Y12551D01*
G01X11343Y12447D01*
G01X11343Y12289D01*
G01X11394Y12188D01*
G01X11447Y12135D01*
G01X11602Y12084D01*
G01X12070Y12084D01*
G01X11000Y13173D02*
G01X11000Y12084D01*
G01X11000Y12084D02*
G01X10375Y12084D01*
G01X10032Y13173D02*
G01X10032Y12084D01*
G01X10032Y13173D02*
G01X9357Y13173D01*
G01X10032Y12655D02*
G01X9618Y12655D01*
G01X10032Y12084D02*
G01X9357Y12084D01*
G01X9014Y13173D02*
G01X9014Y12084D01*
G01X9014Y13173D02*
G01X8651Y13173D01*
G01X8496Y13123D01*
G01X8392Y13018D01*
G01X8338Y12914D01*
G01X8287Y12759D01*
G01X8287Y12498D01*
G01X8338Y12343D01*
G01X8392Y12239D01*
G01X8496Y12135D01*
G01X8651Y12084D01*
G01X9014Y12084D01*
G01X7945Y12965D02*
G01X7840Y13018D01*
G01X7685Y13173D01*
G01X7685Y12084D01*
G01X27861Y24860D02*
G01X27914Y24965D01*
G01X28018Y25069D01*
G01X28120Y25120D01*
G01X28328Y25120D01*
G01X28432Y25069D01*
G01X28536Y24965D01*
G01X28590Y24860D01*
G01X28640Y24705D01*
G01X28640Y24444D01*
G01X28590Y24289D01*
G01X28536Y24185D01*
G01X28432Y24081D01*
G01X28328Y24030D01*
G01X28120Y24030D01*
G01X28018Y24081D01*
G01X27914Y24185D01*
G01X27861Y24289D01*
G01X27861Y24444D01*
G01X28120Y24444D02*
G01X27861Y24444D01*
G01X27518Y25120D02*
G01X27518Y24030D01*
G01X27518Y24030D02*
G01X26896Y24030D01*
G01X26553Y25120D02*
G01X26553Y24030D01*
G01X26553Y25120D02*
G01X25877Y25120D01*
G01X26553Y24601D02*
G01X26136Y24601D01*
G01X26553Y24030D02*
G01X25877Y24030D01*
G01X25534Y25120D02*
G01X25534Y24030D01*
G01X25534Y25120D02*
G01X25171Y25120D01*
G01X25013Y25069D01*
G01X24909Y24965D01*
G01X24858Y24860D01*
G01X24805Y24705D01*
G01X24805Y24444D01*
G01X24858Y24289D01*
G01X24909Y24185D01*
G01X25013Y24081D01*
G01X25171Y24030D01*
G01X25534Y24030D01*
G01X24361Y25120D02*
G01X23789Y25120D01*
G01X24099Y24705D01*
G01X23944Y24705D01*
G01X23840Y24652D01*
G01X23789Y24601D01*
G01X23736Y24444D01*
G01X23736Y24340D01*
G01X23789Y24185D01*
G01X23891Y24081D01*
G01X24048Y24030D01*
G01X24203Y24030D01*
G01X24361Y24081D01*
G01X24411Y24134D01*
G01X24462Y24236D01*
G01X68925Y26000D02*
G01X68925Y24911D01*
G01X68925Y26000D02*
G01X68458Y26000D01*
G01X68303Y25950D01*
G01X68249Y25896D01*
G01X68198Y25792D01*
G01X68198Y25688D01*
G01X68249Y25586D01*
G01X68303Y25533D01*
G01X68458Y25482D01*
G01X68925Y25482D01*
G01X68562Y25482D02*
G01X68198Y24911D01*
G01X67856Y26000D02*
G01X67856Y24911D01*
G01X67856Y24911D02*
G01X67231Y24911D01*
G01X66888Y26000D02*
G01X66888Y24911D01*
G01X66888Y26000D02*
G01X66212Y26000D01*
G01X66888Y25482D02*
G01X66474Y25482D01*
G01X66888Y24911D02*
G01X66212Y24911D01*
G01X65869Y26000D02*
G01X65869Y24911D01*
G01X65869Y26000D02*
G01X65506Y26000D01*
G01X65351Y25950D01*
G01X65247Y25845D01*
G01X65194Y25741D01*
G01X65143Y25586D01*
G01X65143Y25325D01*
G01X65194Y25170D01*
G01X65247Y25066D01*
G01X65351Y24962D01*
G01X65506Y24911D01*
G01X65869Y24911D01*
G01X64747Y25741D02*
G01X64747Y25792D01*
G01X64696Y25896D01*
G01X64645Y25950D01*
G01X64541Y26000D01*
G01X64333Y26000D01*
G01X64228Y25950D01*
G01X64175Y25896D01*
G01X64124Y25792D01*
G01X64124Y25688D01*
G01X64175Y25586D01*
G01X64279Y25429D01*
G01X64800Y24911D01*
G01X64074Y24911D01*
G01X87975Y13173D02*
G01X87975Y12084D01*
G01X87975Y13173D02*
G01X87508Y13173D01*
G01X87353Y13123D01*
G01X87299Y13069D01*
G01X87248Y12965D01*
G01X87248Y12861D01*
G01X87299Y12759D01*
G01X87353Y12706D01*
G01X87508Y12655D01*
G01X87975Y12655D01*
G01X87612Y12655D02*
G01X87248Y12084D01*
G01X86906Y13173D02*
G01X86906Y12084D01*
G01X86906Y12084D02*
G01X86281Y12084D01*
G01X85938Y13173D02*
G01X85938Y12084D01*
G01X85938Y13173D02*
G01X85262Y13173D01*
G01X85938Y12655D02*
G01X85524Y12655D01*
G01X85938Y12084D02*
G01X85262Y12084D01*
G01X84919Y13173D02*
G01X84919Y12084D01*
G01X84919Y13173D02*
G01X84556Y13173D01*
G01X84401Y13123D01*
G01X84297Y13018D01*
G01X84244Y12914D01*
G01X84193Y12759D01*
G01X84193Y12498D01*
G01X84244Y12343D01*
G01X84297Y12239D01*
G01X84401Y12135D01*
G01X84556Y12084D01*
G01X84919Y12084D01*
G01X83746Y13173D02*
G01X83174Y13173D01*
G01X83487Y12759D01*
G01X83329Y12759D01*
G01X83225Y12706D01*
G01X83174Y12655D01*
G01X83124Y12498D01*
G01X83124Y12394D01*
G01X83174Y12239D01*
G01X83278Y12135D01*
G01X83433Y12084D01*
G01X83591Y12084D01*
G01X83746Y12135D01*
G01X83797Y12188D01*
G01X83850Y12289D01*
G01X49875Y82642D02*
G01X49875Y81553D01*
G01X49875Y82642D02*
G01X49408Y82642D01*
G01X49253Y82592D01*
G01X49199Y82538D01*
G01X49148Y82434D01*
G01X49148Y82330D01*
G01X49199Y82228D01*
G01X49253Y82175D01*
G01X49408Y82124D01*
G01X49875Y82124D02*
G01X49408Y82124D01*
G01X49253Y82071D01*
G01X49199Y82020D01*
G01X49148Y81916D01*
G01X49148Y81758D01*
G01X49199Y81657D01*
G01X49253Y81604D01*
G01X49408Y81553D01*
G01X49875Y81553D01*
G01X48806Y82642D02*
G01X48806Y81553D01*
G01X48806Y81553D02*
G01X48181Y81553D01*
G01X47838Y82642D02*
G01X47838Y81553D01*
G01X47838Y82642D02*
G01X47162Y82642D01*
G01X47838Y82124D02*
G01X47424Y82124D01*
G01X47838Y81553D02*
G01X47162Y81553D01*
G01X46819Y82642D02*
G01X46819Y81553D01*
G01X46819Y82642D02*
G01X46456Y82642D01*
G01X46301Y82592D01*
G01X46197Y82487D01*
G01X46144Y82383D01*
G01X46093Y82228D01*
G01X46093Y81967D01*
G01X46144Y81812D01*
G01X46197Y81708D01*
G01X46301Y81604D01*
G01X46456Y81553D01*
G01X46819Y81553D01*
G01X45646Y82642D02*
G01X45074Y82642D01*
G01X45387Y82228D01*
G01X45229Y82228D01*
G01X45125Y82175D01*
G01X45074Y82124D01*
G01X45024Y81967D01*
G01X45024Y81863D01*
G01X45074Y81708D01*
G01X45178Y81604D01*
G01X45333Y81553D01*
G01X45491Y81553D01*
G01X45646Y81604D01*
G01X45697Y81657D01*
G01X45750Y81758D01*
G01X37556Y46320D02*
G01X37556Y45228D01*
G01X37556Y46320D02*
G01X37089Y46320D01*
G01X36934Y46267D01*
G01X36880Y46216D01*
G01X36829Y46112D01*
G01X36829Y46008D01*
G01X36880Y45904D01*
G01X36934Y45853D01*
G01X37089Y45800D01*
G01X37556Y45800D02*
G01X37089Y45800D01*
G01X36934Y45749D01*
G01X36880Y45696D01*
G01X36829Y45591D01*
G01X36829Y45436D01*
G01X36880Y45332D01*
G01X36934Y45282D01*
G01X37089Y45228D01*
G01X37556Y45228D01*
G01X36487Y46320D02*
G01X36487Y45541D01*
G01X36433Y45386D01*
G01X36329Y45282D01*
G01X36174Y45228D01*
G01X36070Y45228D01*
G01X35915Y45282D01*
G01X35811Y45386D01*
G01X35758Y45541D01*
G01X35758Y46320D01*
G01X34688Y46320D02*
G01X35415Y45228D01*
G01X35415Y46320D02*
G01X34688Y46320D01*
G01X35415Y45228D02*
G01X34688Y45228D01*
G01X33619Y46320D02*
G01X34345Y45228D01*
G01X34345Y46320D02*
G01X33619Y46320D01*
G01X34345Y45228D02*
G01X33619Y45228D01*
G01X33276Y46320D02*
G01X33276Y45228D01*
G01X33276Y46320D02*
G01X32600Y46320D01*
G01X33276Y45800D02*
G01X32859Y45800D01*
G01X33276Y45228D02*
G01X32600Y45228D01*
G01X32257Y46320D02*
G01X32257Y45228D01*
G01X32257Y46320D02*
G01X31790Y46320D01*
G01X31633Y46267D01*
G01X31582Y46216D01*
G01X31528Y46112D01*
G01X31528Y46008D01*
G01X31582Y45904D01*
G01X31633Y45853D01*
G01X31790Y45800D01*
G01X32257Y45800D01*
G01X31892Y45800D02*
G01X31528Y45228D01*
G01X31186Y46112D02*
G01X31081Y46163D01*
G01X30926Y46320D01*
G01X30926Y45228D01*
G01X59755Y49495D02*
G01X60845Y49495D01*
G01X59755Y49495D02*
G01X59755Y49028D01*
G01X59806Y48873D01*
G01X59857Y48820D01*
G01X59961Y48769D01*
G01X60065Y48769D01*
G01X60170Y48820D01*
G01X60223Y48873D01*
G01X60274Y49028D01*
G01X60274Y49495D01*
G01X60274Y49132D02*
G01X60845Y48769D01*
G01X60015Y48373D02*
G01X59961Y48373D01*
G01X59857Y48322D01*
G01X59806Y48269D01*
G01X59755Y48164D01*
G01X59755Y47959D01*
G01X59806Y47855D01*
G01X59857Y47801D01*
G01X59961Y47750D01*
G01X60065Y47750D01*
G01X60170Y47801D01*
G01X60327Y47905D01*
G01X60845Y48426D01*
G01X60845Y47697D01*
G01X20485Y14824D02*
G01X19395Y14824D01*
G01X20485Y14824D02*
G01X20485Y15292D01*
G01X20434Y15447D01*
G01X20383Y15500D01*
G01X20279Y15551D01*
G01X20175Y15551D01*
G01X20071Y15500D01*
G01X20017Y15447D01*
G01X19966Y15292D01*
G01X19966Y14824D02*
G01X19966Y15292D01*
G01X19913Y15447D01*
G01X19862Y15500D01*
G01X19758Y15551D01*
G01X19603Y15551D01*
G01X19499Y15500D01*
G01X19446Y15447D01*
G01X19395Y15292D01*
G01X19395Y14824D01*
G01X20485Y15894D02*
G01X19395Y15894D01*
G01X20485Y15894D02*
G01X20485Y16361D01*
G01X20434Y16519D01*
G01X20383Y16569D01*
G01X20279Y16623D01*
G01X20175Y16623D01*
G01X20071Y16569D01*
G01X20017Y16519D01*
G01X19966Y16361D01*
G01X19966Y15894D01*
G01X19966Y16259D02*
G01X19395Y16623D01*
G01X20279Y16966D02*
G01X20330Y17070D01*
G01X20485Y17225D01*
G01X19395Y17225D01*
G01X55003Y66821D02*
G01X53913Y66821D01*
G01X55003Y66821D02*
G01X55003Y67288D01*
G01X54952Y67443D01*
G01X54902Y67496D01*
G01X54797Y67547D01*
G01X54693Y67547D01*
G01X54589Y67496D01*
G01X54536Y67443D01*
G01X54485Y67288D01*
G01X54485Y66821D02*
G01X54485Y67288D01*
G01X54432Y67443D01*
G01X54381Y67496D01*
G01X54277Y67547D01*
G01X54122Y67547D01*
G01X54018Y67496D01*
G01X53964Y67443D01*
G01X53913Y67288D01*
G01X53913Y66821D01*
G01X55003Y67890D02*
G01X53913Y67890D01*
G01X55003Y67890D02*
G01X55003Y68357D01*
G01X54952Y68515D01*
G01X54902Y68566D01*
G01X54797Y68619D01*
G01X54693Y68619D01*
G01X54589Y68566D01*
G01X54536Y68515D01*
G01X54485Y68357D01*
G01X54485Y67890D01*
G01X54485Y68256D02*
G01X53913Y68619D01*
G01X54744Y69013D02*
G01X54797Y69013D01*
G01X54902Y69066D01*
G01X54952Y69117D01*
G01X55003Y69221D01*
G01X55003Y69429D01*
G01X54952Y69533D01*
G01X54902Y69584D01*
G01X54797Y69638D01*
G01X54693Y69638D01*
G01X54589Y69584D01*
G01X54432Y69480D01*
G01X53913Y68962D01*
G01X53913Y69688D01*
G01X48780Y78832D02*
G01X48780Y77743D01*
G01X48780Y78832D02*
G01X48313Y78832D01*
G01X48158Y78782D01*
G01X48105Y78731D01*
G01X48054Y78627D01*
G01X48054Y78523D01*
G01X48105Y78418D01*
G01X48158Y78365D01*
G01X48313Y78314D01*
G01X48780Y78314D02*
G01X48313Y78314D01*
G01X48158Y78261D01*
G01X48105Y78210D01*
G01X48054Y78106D01*
G01X48054Y77951D01*
G01X48105Y77847D01*
G01X48158Y77794D01*
G01X48313Y77743D01*
G01X48780Y77743D01*
G01X47711Y78832D02*
G01X47711Y77743D01*
G01X47711Y78832D02*
G01X47243Y78832D01*
G01X47086Y78782D01*
G01X47035Y78731D01*
G01X46982Y78627D01*
G01X46982Y78523D01*
G01X47035Y78418D01*
G01X47086Y78365D01*
G01X47243Y78314D01*
G01X47711Y78314D01*
G01X47345Y78314D02*
G01X46982Y77743D01*
G01X46535Y78832D02*
G01X45963Y78832D01*
G01X46276Y78418D01*
G01X46121Y78418D01*
G01X46017Y78365D01*
G01X45963Y78314D01*
G01X45912Y78159D01*
G01X45912Y78055D01*
G01X45963Y77898D01*
G01X46067Y77794D01*
G01X46225Y77743D01*
G01X46380Y77743D01*
G01X46535Y77794D01*
G01X46588Y77847D01*
G01X46639Y77951D01*
G01X28226Y38972D02*
G01X28331Y38919D01*
G01X28435Y38815D01*
G01X28486Y38713D01*
G01X28486Y38505D01*
G01X28435Y38401D01*
G01X28331Y38297D01*
G01X28226Y38243D01*
G01X28072Y38192D01*
G01X27812Y38192D01*
G01X27655Y38243D01*
G01X27551Y38297D01*
G01X27447Y38401D01*
G01X27396Y38505D01*
G01X27396Y38713D01*
G01X27447Y38815D01*
G01X27551Y38919D01*
G01X27655Y38972D01*
G01X27812Y38972D01*
G01X27812Y38713D02*
G01X27812Y38972D01*
G01X28486Y39315D02*
G01X27396Y39315D01*
G01X28486Y39315D02*
G01X28486Y39782D01*
G01X28435Y39937D01*
G01X28384Y39991D01*
G01X28280Y40042D01*
G01X28176Y40042D01*
G01X28072Y39991D01*
G01X28018Y39937D01*
G01X27967Y39782D01*
G01X27967Y39315D01*
G01X27967Y39678D02*
G01X27396Y40042D01*
G01X28280Y40384D02*
G01X28331Y40489D01*
G01X28486Y40643D01*
G01X27396Y40643D01*
G01X67215Y37956D02*
G01X67320Y37903D01*
G01X67424Y37799D01*
G01X67475Y37697D01*
G01X67475Y37489D01*
G01X67424Y37385D01*
G01X67320Y37281D01*
G01X67215Y37227D01*
G01X67061Y37176D01*
G01X66801Y37176D01*
G01X66644Y37227D01*
G01X66540Y37281D01*
G01X66436Y37385D01*
G01X66385Y37489D01*
G01X66385Y37697D01*
G01X66436Y37799D01*
G01X66540Y37903D01*
G01X66644Y37956D01*
G01X66801Y37956D01*
G01X66801Y37697D02*
G01X66801Y37956D01*
G01X67475Y38299D02*
G01X66385Y38299D01*
G01X67475Y38299D02*
G01X67475Y38766D01*
G01X67424Y38921D01*
G01X67373Y38975D01*
G01X67269Y39026D01*
G01X67165Y39026D01*
G01X67061Y38975D01*
G01X67007Y38921D01*
G01X66956Y38766D01*
G01X66956Y38299D01*
G01X66956Y38662D02*
G01X66385Y39026D01*
G01X67215Y39422D02*
G01X67269Y39422D01*
G01X67373Y39473D01*
G01X67424Y39526D01*
G01X67475Y39627D01*
G01X67475Y39836D01*
G01X67424Y39940D01*
G01X67373Y39993D01*
G01X67269Y40044D01*
G01X67165Y40044D01*
G01X67061Y39993D01*
G01X66903Y39889D01*
G01X66385Y39368D01*
G01X66385Y40097D01*
G01X39910Y28431D02*
G01X40015Y28378D01*
G01X40119Y28274D01*
G01X40170Y28172D01*
G01X40170Y27964D01*
G01X40119Y27860D01*
G01X40015Y27756D01*
G01X39910Y27702D01*
G01X39756Y27651D01*
G01X39496Y27651D01*
G01X39339Y27702D01*
G01X39235Y27756D01*
G01X39131Y27860D01*
G01X39080Y27964D01*
G01X39080Y28172D01*
G01X39131Y28274D01*
G01X39235Y28378D01*
G01X39339Y28431D01*
G01X39496Y28431D01*
G01X39496Y28172D02*
G01X39496Y28431D01*
G01X40170Y28774D02*
G01X39080Y28774D01*
G01X40170Y28774D02*
G01X40170Y29241D01*
G01X40119Y29396D01*
G01X40068Y29450D01*
G01X39964Y29501D01*
G01X39860Y29501D01*
G01X39756Y29450D01*
G01X39702Y29396D01*
G01X39651Y29241D01*
G01X39651Y28774D01*
G01X39651Y29137D02*
G01X39080Y29501D01*
G01X40170Y29948D02*
G01X40170Y30519D01*
G01X39756Y30207D01*
G01X39756Y30364D01*
G01X39702Y30468D01*
G01X39651Y30519D01*
G01X39496Y30572D01*
G01X39392Y30572D01*
G01X39235Y30519D01*
G01X39131Y30415D01*
G01X39080Y30260D01*
G01X39080Y30102D01*
G01X39131Y29948D01*
G01X39184Y29897D01*
G01X39288Y29843D01*
G01X41059Y68164D02*
G01X39969Y68164D01*
G01X41059Y68164D02*
G01X41059Y68632D01*
G01X41008Y68787D01*
G01X40957Y68840D01*
G01X40853Y68891D01*
G01X40749Y68891D01*
G01X40645Y68840D01*
G01X40591Y68787D01*
G01X40540Y68632D01*
G01X40540Y68164D01*
G01X40540Y68528D02*
G01X39969Y68891D01*
G01X41059Y69234D02*
G01X39969Y69234D01*
G01X41059Y69234D02*
G01X41059Y69701D01*
G01X41008Y69859D01*
G01X40957Y69909D01*
G01X40853Y69963D01*
G01X40749Y69963D01*
G01X40645Y69909D01*
G01X40591Y69859D01*
G01X40540Y69701D01*
G01X40540Y69234D01*
G01X40540Y69599D02*
G01X39969Y69963D01*
G01X40853Y70306D02*
G01X40904Y70410D01*
G01X41059Y70565D01*
G01X39969Y70565D01*
G01X62141Y28667D02*
G01X61051Y28667D01*
G01X62141Y28667D02*
G01X62141Y29135D01*
G01X62090Y29290D01*
G01X62039Y29343D01*
G01X61935Y29394D01*
G01X61831Y29394D01*
G01X61727Y29343D01*
G01X61673Y29290D01*
G01X61622Y29135D01*
G01X61622Y28667D01*
G01X61622Y29031D02*
G01X61051Y29394D01*
G01X62141Y29737D02*
G01X61051Y29737D01*
G01X62141Y29737D02*
G01X62141Y30204D01*
G01X62090Y30362D01*
G01X62039Y30412D01*
G01X61935Y30466D01*
G01X61831Y30466D01*
G01X61727Y30412D01*
G01X61673Y30362D01*
G01X61622Y30204D01*
G01X61622Y29737D01*
G01X61622Y30102D02*
G01X61051Y30466D01*
G01X61881Y30859D02*
G01X61935Y30859D01*
G01X62039Y30913D01*
G01X62090Y30964D01*
G01X62141Y31068D01*
G01X62141Y31276D01*
G01X62090Y31380D01*
G01X62039Y31431D01*
G01X61935Y31484D01*
G01X61831Y31484D01*
G01X61727Y31431D01*
G01X61569Y31327D01*
G01X61051Y30809D01*
G01X61051Y31535D01*
G01X80429Y16094D02*
G01X79339Y16094D01*
G01X80429Y16094D02*
G01X80429Y16562D01*
G01X80378Y16717D01*
G01X80327Y16770D01*
G01X80223Y16821D01*
G01X80119Y16821D01*
G01X80015Y16770D01*
G01X79961Y16717D01*
G01X79910Y16562D01*
G01X79910Y16094D01*
G01X79910Y16458D02*
G01X79339Y16821D01*
G01X80429Y17164D02*
G01X79339Y17164D01*
G01X80429Y17164D02*
G01X80429Y17631D01*
G01X80378Y17789D01*
G01X80327Y17839D01*
G01X80223Y17893D01*
G01X80119Y17893D01*
G01X80015Y17839D01*
G01X79961Y17789D01*
G01X79910Y17631D01*
G01X79910Y17164D01*
G01X79910Y17529D02*
G01X79339Y17893D01*
G01X80429Y18340D02*
G01X80429Y18911D01*
G01X80015Y18599D01*
G01X80015Y18754D01*
G01X79961Y18858D01*
G01X79910Y18911D01*
G01X79755Y18962D01*
G01X79651Y18962D01*
G01X79494Y18911D01*
G01X79390Y18807D01*
G01X79339Y18650D01*
G01X79339Y18495D01*
G01X79390Y18340D01*
G01X79443Y18286D01*
G01X79547Y18236D01*
G01X52616Y19216D02*
G01X51836Y19216D01*
G01X51681Y19267D01*
G01X51577Y19371D01*
G01X51523Y19528D01*
G01X51523Y19633D01*
G01X51577Y19788D01*
G01X51681Y19892D01*
G01X51836Y19942D01*
G01X52616Y19942D01*
G01X52458Y21014D02*
G01X52562Y20910D01*
G01X52616Y20753D01*
G01X52616Y20547D01*
G01X52562Y20390D01*
G01X52458Y20285D01*
G01X52356Y20285D01*
G01X52252Y20339D01*
G01X52199Y20390D01*
G01X52148Y20494D01*
G01X52044Y20806D01*
G01X51991Y20910D01*
G01X51940Y20961D01*
G01X51836Y21014D01*
G01X51681Y21014D01*
G01X51577Y20910D01*
G01X51523Y20753D01*
G01X51523Y20547D01*
G01X51577Y20390D01*
G01X51681Y20285D01*
G01X52616Y21357D02*
G01X51523Y21357D01*
G01X52616Y21357D02*
G01X52616Y21825D01*
G01X52562Y21980D01*
G01X52511Y22033D01*
G01X52407Y22084D01*
G01X52303Y22084D01*
G01X52199Y22033D01*
G01X52148Y21980D01*
G01X52095Y21825D01*
G01X52095Y21357D02*
G01X52095Y21825D01*
G01X52044Y21980D01*
G01X51991Y22033D01*
G01X51887Y22084D01*
G01X51732Y22084D01*
G01X51627Y22033D01*
G01X51577Y21980D01*
G01X51523Y21825D01*
G01X51523Y21357D01*
G01X52407Y22427D02*
G01X52458Y22531D01*
G01X52616Y22686D01*
G01X51523Y22686D01*
G01X42551Y59020D02*
G01X41771Y59020D01*
G01X41616Y59071D01*
G01X41512Y59175D01*
G01X41458Y59333D01*
G01X41458Y59437D01*
G01X41512Y59592D01*
G01X41616Y59696D01*
G01X41771Y59747D01*
G01X42551Y59747D01*
G01X42289Y60143D02*
G01X42342Y60143D01*
G01X42446Y60194D01*
G01X42497Y60247D01*
G01X42551Y60351D01*
G01X42551Y60557D01*
G01X42497Y60661D01*
G01X42446Y60715D01*
G01X42342Y60765D01*
G01X42238Y60765D01*
G01X42134Y60715D01*
G01X41979Y60610D01*
G01X41458Y60090D01*
G01X41458Y60819D01*
G54D10*
G75*
G01X61422Y64058D02*
G02X64186Y64058I1382J2203D01*
G01*
G75*
G01X18242Y34721D02*
G02X21006Y34721I1382J2203D01*
G01*
G75*
G01X74376Y34721D02*
G02X77140Y34721I1382J2203D01*
G01*
G75*
G01X30307Y64058D02*
G02X33071Y64058I1382J2203D01*
G01*
G75*
G01X6685Y6400D02*
G02X9449Y6400I1382J2203D01*
G01*
G75*
G01X27259Y18973D02*
G02X30023Y18973I1382J2203D01*
G01*
G75*
G01X65105Y18973D02*
G02X67869Y18973I1382J2203D01*
G01*
G75*
G01X85425Y6400D02*
G02X88189Y6400I1382J2203D01*
G01*
G75*
G01X46055Y83235D02*
G02X48819Y83235I1382J2203D01*
G01*
G75*
G01X29657Y39463D02*
G02X29659Y39332I4572J0D01*
G01*
G75*
G01X33975Y38447D02*
G02X34081Y38426I254J1016D01*
G01*
G54D21*
G75*
G01X45659Y42021D02*
G02X45664Y42021I3J300D01*
G01*
G54D10*
G75*
G01X46675Y41320D02*
G02X47945Y41320I635J0D01*
G01*
G54D22*
G75*
G01X43510Y41081D02*
G02X43513Y41081I1J150D01*
G01*
G54D10*
G75*
G01X48232Y32526D02*
G03X48232Y32526I-749J0D01*
G01*
G75*
G01X49233Y32526D02*
G03X49233Y32526I-1750J0D01*
G01*
M00*
M02*
