G04 Layer: BottomSolderMaskLayer*
G04 EasyEDA v6.2.35, 2019-08-21T20:42:41--4:00*
G04 b93f31dc4dfb4fa4b1faa3162af4ed07,6e2bf04d41c14c7a8c50f1ceb3267db7,10*
G04 Gerber Generator version 0.2*
G04 Scale: 100 percent, Rotated: No, Reflected: No *
G04 Dimensions in millimeters *
G04 leading zeros omitted , absolute positions ,3 integer and 3 decimal *
%FSLAX33Y33*%
%MOMM*%
G90*
G71D02*

%ADD25C,1.003198*%
%ADD26C,2.203196*%
%ADD27C,1.854200*%
%ADD29C,1.403198*%
%ADD30C,2.082800*%
%ADD31C,1.103198*%
%ADD32C,1.703197*%

%LPD*%
G54D25*
G01X51269Y18716D02*
G01X51269Y19716D01*
G01X44112Y18716D02*
G01X44112Y19716D01*
G54D26*
G01X50686Y30227D03*
G01X44187Y30227D03*
G01X44187Y34727D03*
G01X50686Y34727D03*
G54D27*
G01X62803Y67529D03*
G01X62803Y64989D03*
G01X19623Y38192D03*
G01X19623Y35652D03*
G01X75757Y38192D03*
G01X75757Y35652D03*
G01X31688Y67529D03*
G01X31688Y64989D03*
G01X8066Y9871D03*
G01X8066Y7331D03*
G01X28640Y22444D03*
G01X28640Y19904D03*
G01X66486Y22444D03*
G01X66486Y19904D03*
G01X86806Y9871D03*
G01X86806Y7331D03*
G01X47436Y86706D03*
G01X47436Y84166D03*
G36*
G01X35526Y38761D02*
G01X35526Y40163D01*
G01X36929Y40163D01*
G01X36929Y38761D01*
G01X35526Y38761D01*
G37*
G54D29*
G01X32228Y39462D03*
G54D30*
G01X58104Y44669D03*
G01X58104Y52289D03*
G01X18099Y11014D03*
G01X18099Y18634D03*
G01X56199Y64227D03*
G01X56199Y71847D03*
G01X51246Y79975D03*
G01X43626Y79975D03*
G01X26100Y34382D03*
G01X26100Y42002D03*
G01X65089Y33366D03*
G01X65089Y40986D03*
G01X37784Y23841D03*
G01X37784Y31461D03*
G01X38673Y64354D03*
G01X38673Y71974D03*
G01X59755Y24857D03*
G01X59755Y32477D03*
G01X78043Y12284D03*
G01X78043Y19904D03*
G54D31*
G01X48991Y19516D03*
G01X48341Y18515D03*
G01X47690Y19516D03*
G01X47040Y18515D03*
G01X46390Y19516D03*
G54D32*
G01X51119Y75530D03*
G01X51119Y72990D03*
G01X51119Y70450D03*
G01X51119Y67910D03*
G01X51119Y65370D03*
G01X51119Y62830D03*
G01X51119Y60290D03*
G01X51119Y57750D03*
G01X51119Y55210D03*
G01X51119Y52670D03*
G01X51119Y50130D03*
G01X51119Y47590D03*
G01X51119Y45050D03*
G01X51119Y42510D03*
G01X43499Y75530D03*
G01X43499Y72990D03*
G01X43499Y70450D03*
G01X43499Y67910D03*
G01X43499Y65370D03*
G01X43499Y62830D03*
G01X43499Y60290D03*
G01X43499Y57750D03*
G01X43499Y55210D03*
G01X43499Y52670D03*
G01X43499Y50130D03*
G01X43499Y47590D03*
G01X43499Y45050D03*
G36*
G01X42649Y41659D02*
G01X42649Y43361D01*
G01X44350Y43361D01*
G01X44350Y41659D01*
G01X42649Y41659D01*
G37*
M00*
M02*
